<svg xmlns="http://www.w3.org/2000/svg" viewBox="0 0 35.38 35.38"><defs><style>.cls-1{fill:#ffffff;}.cls-2{fill:none;}</style></defs><g id="Ebene_2" data-name="Ebene 2"><g id="Ebene_1-2" data-name="Ebene 1"><path id="Pfad_228" data-name="Pfad 228" class="cls-1" d="M35.38,17.69A17.69,17.69,0,1,0,14.93,35.16V22.8h-4.5V17.69h4.5v-3.9c0-4.43,2.64-6.88,6.68-6.88a27.6,27.6,0,0,1,4,.34v4.36H23.34a2.54,2.54,0,0,0-2.87,2.19,2.18,2.18,0,0,0,0,.57v3.32h4.91l-.79,5.11H20.46V35.16A17.69,17.69,0,0,0,35.38,17.69Z"/><path id="Pfad_229" data-name="Pfad 229" class="cls-2" d="M24.58,22.8l.78-5.11h-4.9V14.37a2.54,2.54,0,0,1,2.31-2.77,2.18,2.18,0,0,1,.57,0h2.23V7.25a27.73,27.73,0,0,0-4-.34c-4.05,0-6.69,2.45-6.69,6.88v3.9H10.43V22.8h4.49V35.17a18.31,18.31,0,0,0,5.53,0V22.8Z"/></g></g></svg>