<svg xmlns="http://www.w3.org/2000/svg" xmlns:xlink="http://www.w3.org/1999/xlink" viewBox="0 0 448.57 415"><defs><style>.cls-1{fill:url(#Unbenannter_Verlauf_3);}.cls-2{fill:#fff;}</style><linearGradient id="Unbenannter_Verlauf_3" y1="207.5" x2="448.57" y2="207.5" gradientUnits="userSpaceOnUse"><stop offset="0" stop-color="#cce312"/><stop offset="1" stop-color="#2b8e30"/></linearGradient></defs><g id="Ebene_2" data-name="Ebene 2"><g id="Ebene_1-2" data-name="Ebene 1"><path class="cls-1" d="M306.6,0a215.3,215.3,0,0,0-54.76,7.65C150.28,34.77.29,91.46,0,182.92v.53C.12,222,26.76,266.61,94.67,317.8c90.26,68.05,150.4,97.07,194.27,97.2h.54c67.4-.16,96.27-68.83,137.23-168.94C485.18,103.16,419.87.39,307.82,0Z"/><path class="cls-2" d="M310.52,292.15a5.61,5.61,0,0,1,1-1.4,4.59,4.59,0,0,1,1.28-.94,3.26,3.26,0,0,1,1.42-.34,2.24,2.24,0,0,1,1.56.49,1.72,1.72,0,0,1,.51,1.3,2.38,2.38,0,0,1-.26,1.11,2.31,2.31,0,0,1-1,.92,5.88,5.88,0,0,1-1.95.58,16.93,16.93,0,0,1-3.22.08,7.35,7.35,0,0,1,.62-1.8m.05,6.35a4.17,4.17,0,0,1-.82-3.26,17.15,17.15,0,0,0,3.84-.16,7.89,7.89,0,0,0,2.63-.85,4,4,0,0,0,1.52-1.41,3.52,3.52,0,0,0,.49-1.84,2.77,2.77,0,0,0-.87-2.05,3.55,3.55,0,0,0-2.57-.84,6.27,6.27,0,0,0-2.64.59,7,7,0,0,0-2.22,1.66,8.48,8.48,0,0,0-1.54,2.56,9.09,9.09,0,0,0-.57,3.29,4.63,4.63,0,0,0,1.25,3.44,4.81,4.81,0,0,0,3.53,1.24,8.65,8.65,0,0,0,1.39-.1,7,7,0,0,0,1.13-.26,6.45,6.45,0,0,0,.85-.35,2.47,2.47,0,0,0,.5-.34,1.07,1.07,0,0,0,.19-.26.6.6,0,0,0,.06-.27.45.45,0,0,0-.12-.33.49.49,0,0,0-.33-.13,1.06,1.06,0,0,0-.44.11c-.16.07-.37.14-.61.22a8.61,8.61,0,0,1-.85.22,5.27,5.27,0,0,1-1.13.11,3.58,3.58,0,0,1-2.67-1m-6.48-13.06a1.33,1.33,0,0,0,1,.36,1.39,1.39,0,0,0,1-.41,1.41,1.41,0,0,0,.4-1,1.26,1.26,0,0,0-.36-.93,1.31,1.31,0,0,0-.95-.36,1.39,1.39,0,0,0-1,.41,1.38,1.38,0,0,0-.42,1,1.24,1.24,0,0,0,.38.94m-.73,4.36-1.48,8.63a3,3,0,0,0-.05,1.09,1.58,1.58,0,0,0,.29.72,1.18,1.18,0,0,0,.58.41,2.55,2.55,0,0,0,.81.12,3.43,3.43,0,0,0,.86-.11,3.52,3.52,0,0,0,.7-.28,1.42,1.42,0,0,0,.47-.39.75.75,0,0,0,.16-.45.42.42,0,0,0-.11-.32.46.46,0,0,0-.32-.11,1,1,0,0,0-.42.11,1.19,1.19,0,0,1-.56.12.68.68,0,0,1-.53-.22c-.13-.14-.16-.43-.07-.86l1.51-8.76a1,1,0,0,0-.2-1,1.55,1.55,0,0,0-1-.28,7,7,0,0,0-.9,0,5,5,0,0,0-.89.17,1.34,1.34,0,0,0-.58.29.56.56,0,0,0-.15.39.36.36,0,0,0,.13.32.88.88,0,0,0,.35.13Zm-7.55,7.52a5.8,5.8,0,0,1-1.05,1.1,5.9,5.9,0,0,1-1.19.74,3.46,3.46,0,0,1-1.52.33,2.29,2.29,0,0,1-1.81-.83,3.91,3.91,0,0,1-.72-2.59,9.6,9.6,0,0,1,.3-2.39,6.69,6.69,0,0,1,.94-2.12,5.09,5.09,0,0,1,1.65-1.51,4.8,4.8,0,0,1,2.41-.58,5,5,0,0,1,1,.09,4.85,4.85,0,0,1,.7.19,2.16,2.16,0,0,1,.55.25Zm3.07-7.47a1.09,1.09,0,0,0,0-.58,1.11,1.11,0,0,0-.37-.43,4.76,4.76,0,0,0-1.36-.53,7.28,7.28,0,0,0-7.62,2.46,8.37,8.37,0,0,0-1.44,2.68,9.59,9.59,0,0,0-.47,3,4.64,4.64,0,0,0,1.07,3.31,3.6,3.6,0,0,0,2.75,1.14,4.93,4.93,0,0,0,1.9-.33,4.86,4.86,0,0,0,1.32-.75,3.92,3.92,0,0,0,1-1.08l0,0c-.08.24-.16.48-.22.72a7.14,7.14,0,0,0-.18.79,10.22,10.22,0,0,1-.68,2.34,5.27,5.27,0,0,1-1,1.57,3.57,3.57,0,0,1-1.33.87,4.52,4.52,0,0,1-1.62.28,2.44,2.44,0,0,1-1.11-.21,2.92,2.92,0,0,1-.67-.46q-.25-.24-.45-.45A.58.58,0,0,0,288,304a1,1,0,0,0-.76.28,1.12,1.12,0,0,0-.25.72,1.44,1.44,0,0,0,.85,1.2,4.24,4.24,0,0,0,2.22.51,6.76,6.76,0,0,0,4.63-1.64,8.62,8.62,0,0,0,2.47-5.12Zm-22.76,3.65a6.73,6.73,0,0,1,.88-2,4.79,4.79,0,0,1,1.49-1.45,4.06,4.06,0,0,1,2.16-.56,3,3,0,0,1,2.28.95,3.87,3.87,0,0,1,.88,2.75,8.88,8.88,0,0,1-.29,2.29,6.63,6.63,0,0,1-.87,2,4.72,4.72,0,0,1-1.51,1.44,4,4,0,0,1-2.14.56,3,3,0,0,1-2.29-.95,3.9,3.9,0,0,1-.87-2.75,9.32,9.32,0,0,1,.28-2.29m-1.9,4.6a4.28,4.28,0,0,0,.95,1.5,4,4,0,0,0,1.5.94,5.65,5.65,0,0,0,2,.33,6.54,6.54,0,0,0,2.73-.59,6.89,6.89,0,0,0,2.25-1.66,8,8,0,0,0,1.54-2.54,8.88,8.88,0,0,0,.57-3.23,5.61,5.61,0,0,0-.33-2,4,4,0,0,0-2.44-2.44,5.71,5.71,0,0,0-2-.33,6.53,6.53,0,0,0-2.72.59,7.08,7.08,0,0,0-2.26,1.66,8.09,8.09,0,0,0-1.53,2.54,8.93,8.93,0,0,0-.57,3.24,5.83,5.83,0,0,0,.32,2M270.45,284,268,298.43a2.85,2.85,0,0,0-.06.39c0,.13,0,.25,0,.37a1.47,1.47,0,0,0,.47,1.23,2,2,0,0,0,1.23.35,3.3,3.3,0,0,0,.85-.11,3.89,3.89,0,0,0,.71-.28,1.49,1.49,0,0,0,.46-.39.75.75,0,0,0,.16-.45.39.39,0,0,0-.43-.43,1.05,1.05,0,0,0-.43.11,1.15,1.15,0,0,1-.55.12.68.68,0,0,1-.53-.22c-.13-.14-.16-.43-.07-.86l2.51-14.42c0-.09,0-.17,0-.24a1.93,1.93,0,0,0,0-.24.87.87,0,0,0-.3-.72,1.54,1.54,0,0,0-1-.24c-.28,0-.58,0-.89.05a6.09,6.09,0,0,0-.89.18,1.23,1.23,0,0,0-.58.29.56.56,0,0,0-.15.39.38.38,0,0,0,.12.32,1.24,1.24,0,0,0,.36.13ZM256,293.5a6.73,6.73,0,0,1,.88-2,4.79,4.79,0,0,1,1.49-1.45,4.09,4.09,0,0,1,2.16-.56,3,3,0,0,1,2.28.95,3.87,3.87,0,0,1,.88,2.75,8.88,8.88,0,0,1-.29,2.29,6.63,6.63,0,0,1-.87,2,4.72,4.72,0,0,1-1.51,1.44,4,4,0,0,1-2.14.56,3,3,0,0,1-2.29-.95,3.9,3.9,0,0,1-.87-2.75,9.32,9.32,0,0,1,.28-2.29m-1.89,4.6a4.12,4.12,0,0,0,.94,1.5,4,4,0,0,0,1.5.94,5.67,5.67,0,0,0,2,.33,6.53,6.53,0,0,0,2.72-.59,6.79,6.79,0,0,0,2.25-1.66,8,8,0,0,0,1.54-2.54,8.88,8.88,0,0,0,.57-3.23,5.61,5.61,0,0,0-.33-2,4.12,4.12,0,0,0-.94-1.5,4,4,0,0,0-1.5-.94,5.69,5.69,0,0,0-2-.33,6.54,6.54,0,0,0-2.73.59,7.08,7.08,0,0,0-2.26,1.66,8.28,8.28,0,0,0-1.53,2.54,8.93,8.93,0,0,0-.57,3.24,5.59,5.59,0,0,0,.33,2m-5.79-8.48-1.39,8.06a4.94,4.94,0,0,0-.07,1.25,2.14,2.14,0,0,0,.31,1,1.84,1.84,0,0,0,.77.62,3,3,0,0,0,1.28.23,4.63,4.63,0,0,0,1.1-.12,4.14,4.14,0,0,0,.83-.31,2,2,0,0,0,.53-.41.74.74,0,0,0,.19-.44.36.36,0,0,0-.41-.4,1.68,1.68,0,0,0-.61.15,2.42,2.42,0,0,1-.92.15,2.14,2.14,0,0,1-.69-.09.68.68,0,0,1-.4-.32,1.15,1.15,0,0,1-.16-.6,5.41,5.41,0,0,1,.09-1l1.33-7.8h2.65a.92.92,0,0,0,.65-.21.75.75,0,0,0,.23-.57c0-.35-.22-.52-.66-.52h-2.64l.45-2.62a.72.72,0,0,0-.05-.57.48.48,0,0,0-.4-.16.88.88,0,0,0-.63.29,3,3,0,0,0-.53,1.09l-.63,2h-1.25a.93.93,0,0,0-.66.21.74.74,0,0,0-.22.57c0,.35.21.52.65.52Zm-14.55.18L232,299.89a.63.63,0,0,0,.7.86,1,1,0,0,0,1.09-.86l1.4-8.25a6,6,0,0,1,1.06-1.07,6.65,6.65,0,0,1,1.18-.75,3.27,3.27,0,0,1,1.52-.35,2,2,0,0,1,1.56.62,3,3,0,0,1,.55,2,11.34,11.34,0,0,1-.16,1.64c-.11.66-.22,1.32-.34,2s-.24,1.32-.34,1.94a10.61,10.61,0,0,0-.14,1.45,1.47,1.47,0,0,0,1.71,1.61,3.22,3.22,0,0,0,.84-.11,3.67,3.67,0,0,0,.69-.28,1.42,1.42,0,0,0,.47-.39.75.75,0,0,0,.16-.45.39.39,0,0,0-.43-.43,1,1,0,0,0-.42.11,1.22,1.22,0,0,1-.56.12.71.71,0,0,1-.46-.15.63.63,0,0,1-.19-.53,8.09,8.09,0,0,1,.17-1.36c.12-.59.25-1.22.38-1.9s.26-1.36.38-2a10.26,10.26,0,0,0,.17-1.77,3.52,3.52,0,0,0-.9-2.58,3.37,3.37,0,0,0-2.49-.92,4.74,4.74,0,0,0-1.9.34,5.8,5.8,0,0,0-1.32.74,4.37,4.37,0,0,0-1,1.08l-.06,0,.11-.4c0-.12,0-.24.07-.36a2,2,0,0,0,0-.35.87.87,0,0,0-.26-.66,1.29,1.29,0,0,0-.9-.24,6.83,6.83,0,0,0-.89,0,5.3,5.3,0,0,0-.9.17,1.4,1.4,0,0,0-.58.29.56.56,0,0,0-.15.39.36.36,0,0,0,.13.32.88.88,0,0,0,.35.13ZM220,293.5a6.26,6.26,0,0,1,.88-2,4.69,4.69,0,0,1,1.49-1.45,4,4,0,0,1,2.16-.56,3,3,0,0,1,2.28.95,3.87,3.87,0,0,1,.88,2.75,9.33,9.33,0,0,1-.29,2.29,6.65,6.65,0,0,1-.88,2,4.59,4.59,0,0,1-1.5,1.44,4.08,4.08,0,0,1-2.15.56,3,3,0,0,1-2.28-.95,3.85,3.85,0,0,1-.88-2.75,9.33,9.33,0,0,1,.29-2.29m-1.9,4.6a4.14,4.14,0,0,0,.95,1.5,4,4,0,0,0,1.5.94,5.65,5.65,0,0,0,2,.33,6.49,6.49,0,0,0,2.72-.59,6.93,6.93,0,0,0,2.26-1.66,8,8,0,0,0,1.54-2.54,8.88,8.88,0,0,0,.57-3.23,5.84,5.84,0,0,0-.33-2,4.14,4.14,0,0,0-.95-1.5,4,4,0,0,0-1.5-.94,5.65,5.65,0,0,0-2-.33,6.46,6.46,0,0,0-2.72.59,7.08,7.08,0,0,0-2.26,1.66,8.11,8.11,0,0,0-1.54,2.54,8.93,8.93,0,0,0-.56,3.24,5.6,5.6,0,0,0,.32,2m-6.06-.78a5.93,5.93,0,0,1-2.25,1.84,3.44,3.44,0,0,1-1.51.33,2.31,2.31,0,0,1-1.82-.83,4,4,0,0,1-.71-2.59,9.6,9.6,0,0,1,.3-2.39,6.47,6.47,0,0,1,.94-2.12,5,5,0,0,1,1.64-1.51,4.8,4.8,0,0,1,2.41-.58,4.88,4.88,0,0,1,1,.09,4.51,4.51,0,0,1,.7.19,2.24,2.24,0,0,1,.56.25Zm1.84-10.66c-.06.3-.1.58-.13.85s-.07.55-.1.83l0,.05-.61-.15-.66-.1a7.88,7.88,0,0,0-4.22.69,7.45,7.45,0,0,0-2.39,1.94,8.54,8.54,0,0,0-1.43,2.68,9.61,9.61,0,0,0-.48,3,4.69,4.69,0,0,0,1.07,3.31,3.6,3.6,0,0,0,2.75,1.14,4.93,4.93,0,0,0,1.9-.33,5.09,5.09,0,0,0,1.33-.75,3.92,3.92,0,0,0,1-1.08l.05,0a1.81,1.81,0,0,0,.29,1.51,1.62,1.62,0,0,0,1.34.53,3,3,0,0,0,.81-.11,3.36,3.36,0,0,0,.66-.28,1.38,1.38,0,0,0,.46-.39.75.75,0,0,0,.16-.45.39.39,0,0,0-.43-.43,1,1,0,0,0-.42.11,1.19,1.19,0,0,1-.56.12.68.68,0,0,1-.53-.22c-.13-.14-.16-.43-.07-.86l2.51-14.57a1,1,0,0,0-.2-1,1.53,1.53,0,0,0-1-.29c-.33,0-.66,0-1,.05a6.37,6.37,0,0,0-.91.18,1.24,1.24,0,0,0-.57.29.56.56,0,0,0-.15.39.38.38,0,0,0,.12.32,1.07,1.07,0,0,0,.35.13l1.54.23Zm-21.53,6.84a6.26,6.26,0,0,1,.88-2,4.59,4.59,0,0,1,1.49-1.45,4,4,0,0,1,2.15-.56,3,3,0,0,1,2.29.95,3.91,3.91,0,0,1,.88,2.75,9.33,9.33,0,0,1-.29,2.29,6.65,6.65,0,0,1-.88,2,4.52,4.52,0,0,1-1.51,1.44,4,4,0,0,1-2.14.56,3,3,0,0,1-2.28-.95,3.85,3.85,0,0,1-.88-2.75,9.33,9.33,0,0,1,.29-2.29m-1.9,4.6a3.94,3.94,0,0,0,2.45,2.44,5.61,5.61,0,0,0,2,.33,6.49,6.49,0,0,0,2.72-.59,6.93,6.93,0,0,0,2.26-1.66,8.18,8.18,0,0,0,1.54-2.54,9.09,9.09,0,0,0,.56-3.23,5.85,5.85,0,0,0-.32-2,4.14,4.14,0,0,0-.95-1.5,4,4,0,0,0-1.5-.94,5.65,5.65,0,0,0-2-.33,6.54,6.54,0,0,0-2.73.59,7,7,0,0,0-2.25,1.66,8.11,8.11,0,0,0-1.54,2.54,8.93,8.93,0,0,0-.57,3.24,5.59,5.59,0,0,0,.33,2m-6-8.3-1.74,10.09a.63.63,0,0,0,.7.86,1,1,0,0,0,1.09-.86l1.33-7.72a8.12,8.12,0,0,1,.88-1.06,5.77,5.77,0,0,1,.82-.74,1.33,1.33,0,0,1,.82-.34,1.48,1.48,0,0,1,.31,0l.24.08.21.07a.77.77,0,0,0,.27,0,.67.67,0,0,0,.35-.1.91.91,0,0,0,.31-.28,1.61,1.61,0,0,0,.23-.43,1.5,1.5,0,0,0,.09-.52.81.81,0,0,0-.27-.64,1.08,1.08,0,0,0-.76-.24,2.41,2.41,0,0,0-.9.18,3.31,3.31,0,0,0-.86.5,5.11,5.11,0,0,0-.83.79,7.87,7.87,0,0,0-.76,1.05l-.05,0a4.07,4.07,0,0,1,.13-.5c0-.14.06-.29.1-.46a2.48,2.48,0,0,0,.05-.45.9.9,0,0,0-.25-.66,1.32,1.32,0,0,0-.91-.24,6.83,6.83,0,0,0-.89,0,5.12,5.12,0,0,0-.9.17,1.47,1.47,0,0,0-.58.29.56.56,0,0,0-.15.39.38.38,0,0,0,.13.32.88.88,0,0,0,.35.13Zm-8.06,7.52a5.5,5.5,0,0,1-1.05,1.1,5.9,5.9,0,0,1-1.19.74,3.49,3.49,0,0,1-1.52.33,2.29,2.29,0,0,1-1.81-.83,3.91,3.91,0,0,1-.72-2.59,9.6,9.6,0,0,1,.3-2.39,6.49,6.49,0,0,1,1-2.12,5,5,0,0,1,1.64-1.51,4.8,4.8,0,0,1,2.41-.58,5,5,0,0,1,1,.09,4.85,4.85,0,0,1,.7.19,2.16,2.16,0,0,1,.55.25Zm3.07-7.47a1.08,1.08,0,0,0,0-.58.93.93,0,0,0-.36-.43,4.64,4.64,0,0,0-1.36-.53,7.28,7.28,0,0,0-7.62,2.46,8.37,8.37,0,0,0-1.44,2.68,9.9,9.9,0,0,0-.47,3,4.69,4.69,0,0,0,1.06,3.31,3.63,3.63,0,0,0,2.76,1.14,4.93,4.93,0,0,0,1.9-.33,4.86,4.86,0,0,0,1.32-.75,3.77,3.77,0,0,0,1-1.08l.05,0a1.85,1.85,0,0,0,.29,1.51,1.65,1.65,0,0,0,1.35.53,3,3,0,0,0,.8-.11,3.22,3.22,0,0,0,.67-.28,1.44,1.44,0,0,0,.45-.39.77.77,0,0,0,.17-.45.42.42,0,0,0-.12-.32.43.43,0,0,0-.31-.11,1.05,1.05,0,0,0-.43.11,1.15,1.15,0,0,1-.55.12.67.67,0,0,1-.53-.22c-.13-.14-.16-.43-.08-.86Zm-19.95,2.52,1.26-7.25h2a3.92,3.92,0,0,1,2.63.71,2.54,2.54,0,0,1,.79,2,5.28,5.28,0,0,1-.31,1.89,3.78,3.78,0,0,1-.93,1.41,4.2,4.2,0,0,1-1.51.89,6.17,6.17,0,0,1-2,.32Zm-3,6.77-1.56.35a1.15,1.15,0,0,0-.52.22.61.61,0,0,0-.16.43.49.49,0,0,0,.14.38.62.62,0,0,0,.42.13h5.05a.77.77,0,0,0,.52-.17.53.53,0,0,0,.19-.44.48.48,0,0,0-.13-.36.86.86,0,0,0-.45-.22l-1.66-.35.93-5.41H161a8.91,8.91,0,0,0,3-.47,6.47,6.47,0,0,0,2.26-1.28,5.36,5.36,0,0,0,1.39-2,6.4,6.4,0,0,0,.48-2.5,3.83,3.83,0,0,0-.3-1.53,3.12,3.12,0,0,0-.92-1.19,4.23,4.23,0,0,0-1.56-.78,7.76,7.76,0,0,0-2.23-.28H157.5a.68.68,0,0,0-.49.17.58.58,0,0,0-.16.44.5.5,0,0,0,.15.37,1,1,0,0,0,.5.23l1.39.3Z"/><path class="cls-2" d="M374.31,258.61a5.47,5.47,0,0,1,1-1.41,4.74,4.74,0,0,1,1.28-.94,3.29,3.29,0,0,1,1.43-.33,2.2,2.2,0,0,1,1.55.48,1.7,1.7,0,0,1,.52,1.3,2.39,2.39,0,0,1-.27,1.11,2.2,2.2,0,0,1-1,.92,5.89,5.89,0,0,1-1.94.58,17,17,0,0,1-3.22.08,6.76,6.76,0,0,1,.62-1.79m.05,6.34a4.08,4.08,0,0,1-.82-3.26,17.73,17.73,0,0,0,3.83-.15,8.18,8.18,0,0,0,2.64-.86,3.9,3.9,0,0,0,1.51-1.41,3.5,3.5,0,0,0,.49-1.84,2.76,2.76,0,0,0-.86-2.05,3.58,3.58,0,0,0-2.58-.84,6.22,6.22,0,0,0-2.63.59,7,7,0,0,0-2.23,1.66,8.26,8.26,0,0,0-1.53,2.56,8.92,8.92,0,0,0-.58,3.29,4.62,4.62,0,0,0,1.26,3.44,4.77,4.77,0,0,0,3.52,1.24,8.78,8.78,0,0,0,1.4-.1,6.5,6.5,0,0,0,1.13-.26,5.77,5.77,0,0,0,.84-.35,2.47,2.47,0,0,0,.5-.34.86.86,0,0,0,.19-.26.49.49,0,0,0,.06-.27.42.42,0,0,0-.45-.45,1.11,1.11,0,0,0-.44.1c-.16.07-.36.14-.61.22a8.19,8.19,0,0,1-.84.23,5.43,5.43,0,0,1-1.14.1,3.55,3.55,0,0,1-2.66-1m-6.49-13.06a1.35,1.35,0,0,0,1,.36,1.39,1.39,0,0,0,1.43-1.44,1.27,1.27,0,0,0-.36-.94,1.28,1.28,0,0,0-.94-.36,1.46,1.46,0,0,0-1,.41,1.41,1.41,0,0,0-.41,1,1.24,1.24,0,0,0,.37.94m-.73,4.36-1.48,8.63a3.26,3.26,0,0,0-.05,1.1,1.59,1.59,0,0,0,.29.71,1.23,1.23,0,0,0,.58.41,2.57,2.57,0,0,0,.82.12,3,3,0,0,0,.85-.11,3.28,3.28,0,0,0,.71-.28,1.38,1.38,0,0,0,.46-.39.75.75,0,0,0,.16-.45.38.38,0,0,0-.42-.43,1,1,0,0,0-.43.11,1.18,1.18,0,0,1-.55.12.67.67,0,0,1-.53-.22c-.14-.14-.16-.43-.08-.86L369,256a1,1,0,0,0-.2-1,1.55,1.55,0,0,0-1-.28,6.83,6.83,0,0,0-.89.05,5.3,5.3,0,0,0-.9.17,1.53,1.53,0,0,0-.58.29.56.56,0,0,0-.15.39.36.36,0,0,0,.13.32,1.06,1.06,0,0,0,.35.14Zm-7.54,7.53a6.1,6.1,0,0,1-1.06,1.09,5.9,5.9,0,0,1-1.19.74,3.41,3.41,0,0,1-1.51.33,2.31,2.31,0,0,1-1.82-.83,3.89,3.89,0,0,1-.71-2.59,9.66,9.66,0,0,1,.3-2.39,6.47,6.47,0,0,1,.94-2.12,5,5,0,0,1,1.64-1.51,4.8,4.8,0,0,1,2.41-.57,5.78,5.78,0,0,1,1,.08,4.85,4.85,0,0,1,.7.19,2,2,0,0,1,.55.25Zm3.07-7.48a1.19,1.19,0,0,0,0-.58,1,1,0,0,0-.37-.42,4.37,4.37,0,0,0-1.36-.54,8,8,0,0,0-5.23.52,7.48,7.48,0,0,0-2.39,1.94,8.15,8.15,0,0,0-1.43,2.68,9.61,9.61,0,0,0-.48,3,4.69,4.69,0,0,0,1.07,3.31,3.6,3.6,0,0,0,2.75,1.14,4.88,4.88,0,0,0,3.22-1.08,3.77,3.77,0,0,0,1-1.08l.06,0c-.09.24-.16.48-.23.72a7.14,7.14,0,0,0-.18.79,10.22,10.22,0,0,1-.68,2.34,5.25,5.25,0,0,1-1,1.57,3.6,3.6,0,0,1-1.34.87,4.48,4.48,0,0,1-1.62.28,2.44,2.44,0,0,1-1.11-.21,2.92,2.92,0,0,1-.66-.45c-.18-.17-.33-.32-.46-.46a.56.56,0,0,0-.44-.21.91.91,0,0,0-.75.29,1,1,0,0,0-.26.71,1.47,1.47,0,0,0,.85,1.2,4.24,4.24,0,0,0,2.22.52,6.76,6.76,0,0,0,4.63-1.65,8.57,8.57,0,0,0,2.47-5.12ZM339.91,260a6.36,6.36,0,0,1,.88-2,4.69,4.69,0,0,1,1.49-1.45,4,4,0,0,1,2.15-.55,3,3,0,0,1,2.29.94,3.93,3.93,0,0,1,.88,2.75,9.27,9.27,0,0,1-.29,2.29,6.65,6.65,0,0,1-.88,2,4.65,4.65,0,0,1-1.51,1.45,4.13,4.13,0,0,1-2.14.55,2.92,2.92,0,0,1-2.28-.95,3.85,3.85,0,0,1-.88-2.75,9.4,9.4,0,0,1,.29-2.29m-1.9,4.61a4.16,4.16,0,0,0,.94,1.49,4.27,4.27,0,0,0,1.51.95,5.85,5.85,0,0,0,2,.32,6.49,6.49,0,0,0,2.72-.59,6.79,6.79,0,0,0,2.26-1.66,8.18,8.18,0,0,0,1.54-2.54,9.09,9.09,0,0,0,.56-3.23,5.65,5.65,0,0,0-.33-2,4,4,0,0,0-.94-1.5,4.12,4.12,0,0,0-1.5-.94,5.65,5.65,0,0,0-2-.33,6.54,6.54,0,0,0-2.73.59,7,7,0,0,0-2.25,1.66,8,8,0,0,0-1.54,2.55,8.84,8.84,0,0,0-.57,3.23,5.65,5.65,0,0,0,.33,2m-3.77-14.12-2.5,14.44a3.1,3.1,0,0,0-.06.39c0,.13,0,.25,0,.37a1.45,1.45,0,0,0,.46,1.23,2,2,0,0,0,1.24.35,3,3,0,0,0,.85-.11,3.19,3.19,0,0,0,.7-.28,1.38,1.38,0,0,0,.46-.39.75.75,0,0,0,.16-.45.48.48,0,0,0-.11-.32.45.45,0,0,0-.31-.11,1,1,0,0,0-.43.11,1.18,1.18,0,0,1-.55.12.67.67,0,0,1-.53-.22c-.14-.14-.16-.43-.08-.86L336,250.29a1.2,1.2,0,0,0,0-.24,1.94,1.94,0,0,0,0-.24.87.87,0,0,0-.3-.72,1.63,1.63,0,0,0-1-.24c-.29,0-.58,0-.9.05a6.37,6.37,0,0,0-.89.18,1.35,1.35,0,0,0-.58.29.56.56,0,0,0-.15.39.38.38,0,0,0,.13.32.88.88,0,0,0,.35.13ZM319.78,260a6.36,6.36,0,0,1,.88-2,4.69,4.69,0,0,1,1.49-1.45,4,4,0,0,1,2.16-.55,3,3,0,0,1,2.28.94,3.93,3.93,0,0,1,.88,2.75,9.27,9.27,0,0,1-.29,2.29,6.65,6.65,0,0,1-.88,2,4.65,4.65,0,0,1-1.51,1.45,4.1,4.1,0,0,1-2.14.55,2.92,2.92,0,0,1-2.28-.95,3.85,3.85,0,0,1-.88-2.75,9.4,9.4,0,0,1,.29-2.29m-1.9,4.61a4.05,4.05,0,0,0,.95,1.49,4.14,4.14,0,0,0,1.5.95,5.85,5.85,0,0,0,2,.32,6.46,6.46,0,0,0,2.72-.59,6.79,6.79,0,0,0,2.26-1.66,8,8,0,0,0,1.54-2.54,9.09,9.09,0,0,0,.56-3.23,5.43,5.43,0,0,0-.33-2,4,4,0,0,0-.94-1.5,4.12,4.12,0,0,0-1.5-.94,5.65,5.65,0,0,0-2-.33,6.54,6.54,0,0,0-2.73.59,7,7,0,0,0-2.25,1.66,8,8,0,0,0-1.54,2.55,8.84,8.84,0,0,0-.57,3.23,5.65,5.65,0,0,0,.33,2m-5.79-8.48-1.38,8.05a5,5,0,0,0-.08,1.26,2.15,2.15,0,0,0,.32,1,1.68,1.68,0,0,0,.77.63,3.13,3.13,0,0,0,1.28.22,4.55,4.55,0,0,0,1.09-.12,3.44,3.44,0,0,0,.83-.31,1.65,1.65,0,0,0,.53-.41.68.68,0,0,0,.19-.44.35.35,0,0,0-.4-.4,1.68,1.68,0,0,0-.62.15,2.42,2.42,0,0,1-.92.15,2.22,2.22,0,0,1-.69-.09.7.7,0,0,1-.4-.31,1.3,1.3,0,0,1-.15-.61,4.61,4.61,0,0,1,.09-1l1.33-7.79h2.64a.89.89,0,0,0,.66-.22.73.73,0,0,0,.22-.56c0-.36-.22-.53-.65-.53h-2.64l.45-2.62a.73.73,0,0,0-.05-.56.47.47,0,0,0-.4-.17.85.85,0,0,0-.63.29,2.87,2.87,0,0,0-.53,1.09l-.63,2h-1.26a.92.92,0,0,0-.65.21.76.76,0,0,0-.23.57c0,.35.22.53.66.53Zm-14.54.17-1.74,10.09a.79.79,0,0,0,.1.64.76.76,0,0,0,.61.22,1,1,0,0,0,1.08-.86l1.41-8.25a6.66,6.66,0,0,1,1.05-1.07,7,7,0,0,1,1.18-.75,3.31,3.31,0,0,1,1.53-.34,2,2,0,0,1,1.55.61,3,3,0,0,1,.55,2,10.07,10.07,0,0,1-.16,1.64c-.1.66-.22,1.33-.34,2s-.23,1.33-.33,1.94a9.45,9.45,0,0,0-.15,1.45,1.47,1.47,0,0,0,1.71,1.61,2.84,2.84,0,0,0,.84-.11,3.19,3.19,0,0,0,.7-.28,1.38,1.38,0,0,0,.46-.39.77.77,0,0,0,.17-.45.44.44,0,0,0-.12-.32.43.43,0,0,0-.31-.11,1,1,0,0,0-.43.11,1.18,1.18,0,0,1-.55.12.73.73,0,0,1-.47-.15.63.63,0,0,1-.19-.53,7.35,7.35,0,0,1,.18-1.36c.12-.59.24-1.22.38-1.9s.26-1.36.37-2a10.38,10.38,0,0,0,.18-1.77,3.49,3.49,0,0,0-.91-2.58,3.34,3.34,0,0,0-2.49-.92,4.92,4.92,0,0,0-1.9.34,6.2,6.2,0,0,0-1.32.74,4.42,4.42,0,0,0-1,1.09l-.05,0,.1-.4c0-.12.06-.24.08-.35s0-.24,0-.36a.86.86,0,0,0-.25-.66,1.32,1.32,0,0,0-.91-.24,6.93,6.93,0,0,0-.89.05,5,5,0,0,0-.89.17,1.46,1.46,0,0,0-.58.29.56.56,0,0,0-.15.39.38.38,0,0,0,.12.32,1.23,1.23,0,0,0,.36.14Zm-8.05,7.53a6.1,6.1,0,0,1-2.24,1.83,3.49,3.49,0,0,1-1.52.33,2.31,2.31,0,0,1-1.82-.83,4,4,0,0,1-.71-2.59,9.66,9.66,0,0,1,.3-2.39,6.47,6.47,0,0,1,.94-2.12,5,5,0,0,1,1.64-1.51,4.8,4.8,0,0,1,2.41-.57,5.78,5.78,0,0,1,1,.08,5,5,0,0,1,.71.19,2.34,2.34,0,0,1,.55.25Zm3.07-7.48a1.19,1.19,0,0,0,0-.58,1,1,0,0,0-.36-.42,4.47,4.47,0,0,0-1.36-.54,8,8,0,0,0-5.24.52,7.59,7.59,0,0,0-2.39,1.94,8.54,8.54,0,0,0-1.43,2.68,9.61,9.61,0,0,0-.48,3,4.69,4.69,0,0,0,1.07,3.31,3.61,3.61,0,0,0,2.76,1.14A5.08,5.08,0,0,0,287,267a5.4,5.4,0,0,0,1.33-.76,3.92,3.92,0,0,0,1-1.08l0,0a1.81,1.81,0,0,0,.29,1.51,1.62,1.62,0,0,0,1.34.53,2.65,2.65,0,0,0,.81-.11,2.85,2.85,0,0,0,.66-.28,1.38,1.38,0,0,0,.46-.39.75.75,0,0,0,.16-.45.48.48,0,0,0-.11-.32.46.46,0,0,0-.32-.11,1,1,0,0,0-.42.11,1.19,1.19,0,0,1-.56.12.68.68,0,0,1-.53-.22c-.13-.14-.15-.43-.07-.86Zm-14.75-5.86-2.49,14.44a3.1,3.1,0,0,0-.06.39c0,.13,0,.25,0,.37a1.45,1.45,0,0,0,.46,1.23,2,2,0,0,0,1.24.35,3,3,0,0,0,.85-.11,3.19,3.19,0,0,0,.7-.28,1.38,1.38,0,0,0,.46-.39.75.75,0,0,0,.16-.45.48.48,0,0,0-.11-.32.46.46,0,0,0-.32-.11,1,1,0,0,0-.42.11,1.19,1.19,0,0,1-.56.12.68.68,0,0,1-.53-.22c-.13-.14-.15-.43-.07-.86l2.52-14.42q0-.14,0-.24a1.94,1.94,0,0,0,0-.24.87.87,0,0,0-.31-.72,1.59,1.59,0,0,0-.95-.24c-.29,0-.59,0-.9.05a6.37,6.37,0,0,0-.89.18,1.29,1.29,0,0,0-.58.29.56.56,0,0,0-.15.39.36.36,0,0,0,.13.32.88.88,0,0,0,.35.13Zm-13.08,7.65A6.32,6.32,0,0,1,265.8,257a6.65,6.65,0,0,1,1.18-.75,3.31,3.31,0,0,1,1.53-.34,2.3,2.3,0,0,1,1.83.83,3.87,3.87,0,0,1,.72,2.59,9.74,9.74,0,0,1-.31,2.39,6.42,6.42,0,0,1-.94,2.11,5.09,5.09,0,0,1-1.65,1.51,4.7,4.7,0,0,1-2.41.58,5.82,5.82,0,0,1-1-.08,4.8,4.8,0,0,1-.7-.17,1.73,1.73,0,0,1-.56-.28Zm-1.46-1.84-2.69,15.63a.92.92,0,0,0,.17.85,1.13,1.13,0,0,0,.83.28c.36,0,.71,0,1.08-.05l1-.1a1,1,0,0,0,.57-.2.53.53,0,0,0,.16-.41.43.43,0,0,0-.11-.32.79.79,0,0,0-.39-.2,5.4,5.4,0,0,0-.67-.18l-.74-.13.45-2.69c.05-.28.1-.56.13-.84s.07-.55.1-.82l.05-.05.61.15c.18,0,.4.07.65.1a5.61,5.61,0,0,0,.86.05,7.23,7.23,0,0,0,3.38-.74,7.12,7.12,0,0,0,2.39-1.94,8.26,8.26,0,0,0,1.44-2.68,9.61,9.61,0,0,0,.48-3,4.71,4.71,0,0,0-1.07-3.31,3.63,3.63,0,0,0-2.76-1.14,5,5,0,0,0-1.91.34,6.2,6.2,0,0,0-1.32.74,4.46,4.46,0,0,0-1,1.09l-.05,0,.1-.4c0-.12.06-.24.08-.35s0-.24,0-.36a.86.86,0,0,0-.25-.66,1.32,1.32,0,0,0-.91-.24,6.93,6.93,0,0,0-.89.05,5,5,0,0,0-.89.17,1.46,1.46,0,0,0-.58.29.56.56,0,0,0-.15.39.38.38,0,0,0,.12.32,1.23,1.23,0,0,0,.36.14Zm-22.09,0-1.74,10.09a.79.79,0,0,0,.1.64.76.76,0,0,0,.61.22,1,1,0,0,0,1.08-.86l1.41-8.25a5.5,5.5,0,0,1,1-1.07,6.65,6.65,0,0,1,1.18-.75,3.29,3.29,0,0,1,1.51-.34,1.88,1.88,0,0,1,1.7.88,3.76,3.76,0,0,1,.26,2.67l-1.18,6.86a.75.75,0,0,0,.1.64.76.76,0,0,0,.61.22,1,1,0,0,0,1.08-.86l1.41-8.25a5.76,5.76,0,0,1,1-1.07,7.35,7.35,0,0,1,1.17-.75,3.11,3.11,0,0,1,1.46-.34,1.85,1.85,0,0,1,1.47.61,3.06,3.06,0,0,1,.54,2,10.07,10.07,0,0,1-.16,1.64c-.11.66-.22,1.33-.34,2s-.24,1.33-.33,1.94a9.45,9.45,0,0,0-.15,1.45,1.47,1.47,0,0,0,1.71,1.61,2.84,2.84,0,0,0,.84-.11,3.11,3.11,0,0,0,.69-.28,1.42,1.42,0,0,0,.47-.39.75.75,0,0,0,.16-.45.43.43,0,0,0-.11-.32.46.46,0,0,0-.32-.11,1,1,0,0,0-.42.11,1.19,1.19,0,0,1-.56.12.71.71,0,0,1-.46-.15.63.63,0,0,1-.19-.53,7.35,7.35,0,0,1,.18-1.36c.11-.59.24-1.22.37-1.9s.26-1.36.38-2A10.38,10.38,0,0,0,258,258a3.52,3.52,0,0,0-.9-2.58,3.19,3.19,0,0,0-2.4-.92,4.6,4.6,0,0,0-1.94.38,8.38,8.38,0,0,0-1.38.8,5.9,5.9,0,0,0-1.13,1.16,3.08,3.08,0,0,0-1.06-1.67,3.23,3.23,0,0,0-2.14-.67,4.84,4.84,0,0,0-1.87.34,5.79,5.79,0,0,0-1.3.74,4.42,4.42,0,0,0-1,1.09l-.05,0,.1-.4a2.41,2.41,0,0,0,.07-.35,2.19,2.19,0,0,0,0-.36.86.86,0,0,0-.25-.66,1.32,1.32,0,0,0-.91-.24,6.93,6.93,0,0,0-.89.05,5,5,0,0,0-.89.17,1.46,1.46,0,0,0-.58.29.56.56,0,0,0-.15.39.38.38,0,0,0,.12.32,1.16,1.16,0,0,0,.35.14Zm-8.86,9.34-1.56.35a1.1,1.1,0,0,0-.51.23.54.54,0,0,0-.17.42.49.49,0,0,0,.14.38.62.62,0,0,0,.42.13h4.85a.77.77,0,0,0,.52-.17.55.55,0,0,0,.19-.44.53.53,0,0,0-.13-.36.86.86,0,0,0-.43-.22l-1.48-.32,2.41-13.92,1.44-.3a1.32,1.32,0,0,0,.65-.28.58.58,0,0,0,.18-.45.43.43,0,0,0-.15-.35.63.63,0,0,0-.43-.13h-4.91a.68.68,0,0,0-.49.17.58.58,0,0,0-.16.44.5.5,0,0,0,.15.37,1,1,0,0,0,.5.23l1.39.3Zm-12.81-4a1.45,1.45,0,0,0,1,.4,1.56,1.56,0,0,0,.57-.11,1.47,1.47,0,0,0,.8-.8,1.58,1.58,0,0,0,.11-.58,1.4,1.4,0,0,0-.4-1,1.39,1.39,0,0,0-1-.4,1.62,1.62,0,0,0-.58.11,1.35,1.35,0,0,0-.48.32,1.33,1.33,0,0,0-.31.48,1.39,1.39,0,0,0-.12.57,1.45,1.45,0,0,0,.4,1m-16.89-3a5.49,5.49,0,0,1,1-1.41,4.59,4.59,0,0,1,1.28-.94,3.25,3.25,0,0,1,1.42-.33,2.24,2.24,0,0,1,1.56.48,1.72,1.72,0,0,1,.51,1.3,2.38,2.38,0,0,1-.26,1.11,2.31,2.31,0,0,1-1,.92,5.88,5.88,0,0,1-2,.58,16.93,16.93,0,0,1-3.22.08,7.14,7.14,0,0,1,.62-1.79m.05,6.34a4.12,4.12,0,0,1-.82-3.26,17.82,17.82,0,0,0,3.84-.15,8.35,8.35,0,0,0,2.64-.86,4,4,0,0,0,1.51-1.41,3.5,3.5,0,0,0,.49-1.84,2.77,2.77,0,0,0-.87-2.05,3.56,3.56,0,0,0-2.58-.84,6.18,6.18,0,0,0-2.62.59,6.85,6.85,0,0,0-2.23,1.66,8.48,8.48,0,0,0-1.54,2.56,9.13,9.13,0,0,0-.58,3.29,4.62,4.62,0,0,0,1.26,3.44,4.78,4.78,0,0,0,3.52,1.24,8.7,8.7,0,0,0,1.4-.1,6.1,6.1,0,0,0,1.13-.26,6.45,6.45,0,0,0,.85-.35,2.47,2.47,0,0,0,.5-.34,1.07,1.07,0,0,0,.19-.26.6.6,0,0,0,.06-.27.42.42,0,0,0-.13-.33.44.44,0,0,0-.32-.12,1.07,1.07,0,0,0-.44.1c-.16.07-.37.14-.61.22a8.43,8.43,0,0,1-.85.23,5.39,5.39,0,0,1-1.13.1,3.58,3.58,0,0,1-2.67-1m-13.25-8.7,2.24,4.71c-.75,1-1.37,1.86-1.86,2.45a16.28,16.28,0,0,1-1.2,1.35,3,3,0,0,1-.71.56,1.09,1.09,0,0,1-.46.12.64.64,0,0,1-.49-.18.54.54,0,0,0-.44-.18.65.65,0,0,0-.49.26,1,1,0,0,0-.21.65,1.22,1.22,0,0,0,.33.86,1.3,1.3,0,0,0,1,.35,2.81,2.81,0,0,0,.8-.14,3.33,3.33,0,0,0,1-.64,12,12,0,0,0,1.38-1.5c.53-.66,1.16-1.56,1.9-2.7l1.63,3.44a2.87,2.87,0,0,0,1,1.24,2.35,2.35,0,0,0,1.23.32,2.57,2.57,0,0,0,.77-.1,2.17,2.17,0,0,0,.57-.25,1.17,1.17,0,0,0,.35-.35.82.82,0,0,0,.13-.4.4.4,0,0,0-.12-.33.43.43,0,0,0-.31-.1,1.12,1.12,0,0,0-.35.07,1.22,1.22,0,0,1-.51,0,1.28,1.28,0,0,1-.58-.24,1.92,1.92,0,0,1-.58-.78l-1.83-3.87c.72-1,1.32-1.83,1.81-2.43a12.86,12.86,0,0,1,1.22-1.34,3.24,3.24,0,0,1,.78-.55,1.29,1.29,0,0,1,.49-.11.66.66,0,0,1,.49.16.6.6,0,0,0,.44.17.62.62,0,0,0,.49-.26.92.92,0,0,0,.22-.65,1.21,1.21,0,0,0-.34-.89,1.46,1.46,0,0,0-1.07-.34,2.83,2.83,0,0,0-.81.13,3.33,3.33,0,0,0-1.05.65,9.61,9.61,0,0,0-1.4,1.5,32.34,32.34,0,0,0-1.88,2.7l-2-4.15a1.4,1.4,0,0,0-.49-.63,1.32,1.32,0,0,0-.79-.2,5.53,5.53,0,0,0-.84.06,5.22,5.22,0,0,0-.7.16,1.62,1.62,0,0,0-.58.29.56.56,0,0,0-.15.39.36.36,0,0,0,.13.3.88.88,0,0,0,.35.16Zm-8,7.53a6.1,6.1,0,0,1-1.06,1.09,5.9,5.9,0,0,1-1.19.74,3.44,3.44,0,0,1-1.51.33,2.31,2.31,0,0,1-1.82-.83,3.89,3.89,0,0,1-.71-2.59,9.21,9.21,0,0,1,.3-2.39,6.47,6.47,0,0,1,.94-2.12A5,5,0,0,1,178,256.5a4.8,4.8,0,0,1,2.41-.57,5.78,5.78,0,0,1,1,.08,4.51,4.51,0,0,1,.7.19,2.42,2.42,0,0,1,.56.25Zm3.07-7.48a1.19,1.19,0,0,0,0-.58,1,1,0,0,0-.37-.42,4.3,4.3,0,0,0-1.35-.54,8,8,0,0,0-5.24.52,7.59,7.59,0,0,0-2.39,1.94,8.34,8.34,0,0,0-1.43,2.68,9.61,9.61,0,0,0-.48,3,4.64,4.64,0,0,0,1.07,3.31,3.6,3.6,0,0,0,2.75,1.14,4.88,4.88,0,0,0,3.22-1.08,4,4,0,0,0,1-1.08l.05,0a1.85,1.85,0,0,0,.28,1.51,1.65,1.65,0,0,0,1.35.53,2.65,2.65,0,0,0,.81-.11,2.85,2.85,0,0,0,.66-.28,1.38,1.38,0,0,0,.46-.39A.82.82,0,0,0,185,266a.48.48,0,0,0-.11-.32.46.46,0,0,0-.32-.11,1,1,0,0,0-.42.11,1.22,1.22,0,0,1-.56.12.68.68,0,0,1-.53-.22c-.13-.14-.16-.43-.07-.86Zm-14.75-5.86-2.49,14.44a3.1,3.1,0,0,0-.06.39c0,.13,0,.25,0,.37a1.45,1.45,0,0,0,.46,1.23,1.94,1.94,0,0,0,1.24.35,3,3,0,0,0,.85-.11,3.11,3.11,0,0,0,.69-.28,1.33,1.33,0,0,0,.47-.39A.75.75,0,0,0,171,266a.48.48,0,0,0-.11-.32.46.46,0,0,0-.32-.11,1,1,0,0,0-.42.11,1.22,1.22,0,0,1-.56.12.68.68,0,0,1-.53-.22c-.13-.14-.16-.43-.07-.86l2.51-14.42c0-.09,0-.17,0-.24a1.93,1.93,0,0,0,0-.24.87.87,0,0,0-.3-.72,1.59,1.59,0,0,0-.95-.24c-.29,0-.59,0-.9.05a6.37,6.37,0,0,0-.89.18,1.23,1.23,0,0,0-.58.29.56.56,0,0,0-.15.39.36.36,0,0,0,.13.32.88.88,0,0,0,.35.13Zm-14.64,5.76c.2.69.4,1.47.6,2.33s.42,1.8.63,2.82.44,2.1.66,3.26.44,2.37.66,3.64a10.56,10.56,0,0,1-2.69,2.42,4.65,4.65,0,0,1-2.25.7,2.42,2.42,0,0,1-.42,0l-.29-.1a1.58,1.58,0,0,0-.23-.11,1.12,1.12,0,0,0-.27,0,.79.79,0,0,0-.55.22.83.83,0,0,0-.25.66,1,1,0,0,0,.33.77,1.77,1.77,0,0,0,1.13.28,4.71,4.71,0,0,0,1.32-.2,6.67,6.67,0,0,0,1.52-.65,10.23,10.23,0,0,0,1.69-1.2,19.52,19.52,0,0,0,1.87-1.82,43.93,43.93,0,0,0,2.78-3.42,30.68,30.68,0,0,0,2.12-3.3,17.57,17.57,0,0,0,1.34-3,8.27,8.27,0,0,0,.46-2.57,2.29,2.29,0,0,0-.53-1.64,1.92,1.92,0,0,0-1.45-.55,2.44,2.44,0,0,0-1.25.25c-.28.17-.41.35-.41.55a.51.51,0,0,0,.13.37.57.57,0,0,0,.42.14,1.14,1.14,0,0,1,.88.3,1.53,1.53,0,0,1,.28,1,7.75,7.75,0,0,1-.29,2,14.82,14.82,0,0,1-.83,2.28,23.27,23.27,0,0,1-1.32,2.48,29.88,29.88,0,0,1-1.75,2.56h0c-.16-1-.32-2-.51-3s-.38-2-.57-2.9-.39-1.85-.59-2.72-.4-1.69-.59-2.44a1.22,1.22,0,0,0-.39-.67,1.33,1.33,0,0,0-.84-.21,3.66,3.66,0,0,0-.64.05,4.14,4.14,0,0,0-.72.17,1.63,1.63,0,0,0-.58.28.54.54,0,0,0-.15.4.39.39,0,0,0,.14.33.88.88,0,0,0,.39.15Zm-11.8-5.76-2.74,15.9a.63.63,0,0,0,.7.86,1,1,0,0,0,1.08-.86l1.41-8.25a6.66,6.66,0,0,1,1-1.07,7,7,0,0,1,1.18-.75,3.31,3.31,0,0,1,1.53-.34,2,2,0,0,1,1.55.61,3,3,0,0,1,.55,2,10.07,10.07,0,0,1-.16,1.64c-.1.66-.22,1.33-.34,2s-.23,1.33-.33,1.94a9.45,9.45,0,0,0-.15,1.45,1.47,1.47,0,0,0,1.71,1.61,2.84,2.84,0,0,0,.84-.11,3.19,3.19,0,0,0,.7-.28,1.38,1.38,0,0,0,.46-.39.77.77,0,0,0,.17-.45.44.44,0,0,0-.12-.32.43.43,0,0,0-.31-.11,1,1,0,0,0-.43.11,1.15,1.15,0,0,1-.55.12.73.73,0,0,1-.47-.15.67.67,0,0,1-.19-.53,7.35,7.35,0,0,1,.18-1.36c.12-.59.24-1.22.38-1.9s.26-1.36.37-2a10.38,10.38,0,0,0,.18-1.77,3.49,3.49,0,0,0-.91-2.58,3.34,3.34,0,0,0-2.49-.92,5,5,0,0,0-1.9.34,6.46,6.46,0,0,0-1.32.74,4.42,4.42,0,0,0-1,1.09l0,0c.09-.23.16-.47.23-.72s.12-.5.17-.79.15-.75.26-1.31l.3-1.67c.1-.56.18-1.07.25-1.52a7.52,7.52,0,0,0,.1-.86.87.87,0,0,0-.3-.72,1.61,1.61,0,0,0-1-.24c-.28,0-.58,0-.89.05a6.09,6.09,0,0,0-.89.18,1.23,1.23,0,0,0-.58.29.56.56,0,0,0-.15.39.38.38,0,0,0,.12.32,1,1,0,0,0,.35.13Zm-13.09,7.65a6.32,6.32,0,0,1,1.06-1.07,7,7,0,0,1,1.18-.75,3.38,3.38,0,0,1,1.54-.34,2.28,2.28,0,0,1,1.82.83,3.87,3.87,0,0,1,.72,2.59,9.72,9.72,0,0,1-.3,2.39,6.44,6.44,0,0,1-.95,2.11,5.06,5.06,0,0,1-1.64,1.51,4.76,4.76,0,0,1-2.42.58,5.91,5.91,0,0,1-1-.08,5.15,5.15,0,0,1-.7-.17,1.67,1.67,0,0,1-.55-.28Zm-1.46-1.84-2.69,15.63a.92.92,0,0,0,.18.85,1.1,1.1,0,0,0,.83.28c.35,0,.71,0,1.07-.05l1-.1a1,1,0,0,0,.56-.2.53.53,0,0,0,.17-.41.44.44,0,0,0-.12-.32.71.71,0,0,0-.39-.2,5.23,5.23,0,0,0-.66-.18l-.75-.13.46-2.69q.07-.42.12-.84c0-.28.07-.55.1-.82l0-.05.61.15c.18,0,.4.07.65.1a5.69,5.69,0,0,0,.86.05,7.11,7.11,0,0,0,5.78-2.68A8.26,8.26,0,0,0,138,262a9.61,9.61,0,0,0,.48-3,4.66,4.66,0,0,0-1.08-3.31,3.61,3.61,0,0,0-2.76-1.14,5,5,0,0,0-1.91.34,6.2,6.2,0,0,0-1.32.74,4.46,4.46,0,0,0-1,1.09l0,0,.11-.4c0-.12.05-.24.07-.35a2.19,2.19,0,0,0,0-.36.87.87,0,0,0-.26-.66,1.29,1.29,0,0,0-.9-.24,7,7,0,0,0-.9.05,5.19,5.19,0,0,0-.89.17,1.53,1.53,0,0,0-.58.29.56.56,0,0,0-.15.39.36.36,0,0,0,.13.32,1.06,1.06,0,0,0,.35.14ZM115,260a6.57,6.57,0,0,1,.87-2,4.82,4.82,0,0,1,1.5-1.45,4,4,0,0,1,2.15-.55,3,3,0,0,1,2.29.94,3.93,3.93,0,0,1,.88,2.75,9.27,9.27,0,0,1-.29,2.29,6.9,6.9,0,0,1-.88,2,4.65,4.65,0,0,1-1.51,1.45,4.13,4.13,0,0,1-2.14.55,2.92,2.92,0,0,1-2.28-.95,3.85,3.85,0,0,1-.88-2.75A8.93,8.93,0,0,1,115,260m-1.9,4.61a4.16,4.16,0,0,0,.94,1.49,4.27,4.27,0,0,0,1.51.95,5.85,5.85,0,0,0,2,.32,6.53,6.53,0,0,0,2.72-.59,6.79,6.79,0,0,0,2.26-1.66,8.18,8.18,0,0,0,1.54-2.54,9.09,9.09,0,0,0,.56-3.23,5.89,5.89,0,0,0-.32-2,4.28,4.28,0,0,0-1-1.5,4.12,4.12,0,0,0-1.5-.94,5.65,5.65,0,0,0-2-.33,6.54,6.54,0,0,0-2.73.59,7,7,0,0,0-2.25,1.66,8,8,0,0,0-1.54,2.55,8.84,8.84,0,0,0-.57,3.23,5.65,5.65,0,0,0,.33,2m-6-8.31-1.74,10.09a.63.63,0,0,0,.7.86,1,1,0,0,0,1.09-.86l1.33-7.72a7.39,7.39,0,0,1,.88-1.06,6.45,6.45,0,0,1,.82-.74,1.33,1.33,0,0,1,.82-.34,1.48,1.48,0,0,1,.31,0l.24.08.21.08a1.1,1.1,0,0,0,.27,0,.71.71,0,0,0,.35-.11.91.91,0,0,0,.31-.28,2,2,0,0,0,.23-.43,1.46,1.46,0,0,0,.09-.52.81.81,0,0,0-.27-.64,1.08,1.08,0,0,0-.76-.24,2.37,2.37,0,0,0-.9.18,3.31,3.31,0,0,0-.86.5,5.6,5.6,0,0,0-.84.79,7.83,7.83,0,0,0-.75,1l0,0a4.6,4.6,0,0,1,.13-.5c0-.14.06-.29.1-.45a2.68,2.68,0,0,0,0-.46.87.87,0,0,0-.26-.66,1.28,1.28,0,0,0-.9-.24,7,7,0,0,0-.9.05,5.19,5.19,0,0,0-.89.17,1.53,1.53,0,0,0-.58.29.56.56,0,0,0-.15.39.36.36,0,0,0,.13.32,1.06,1.06,0,0,0,.35.14Zm-11.35,2.57L97,251.57h2a3.94,3.94,0,0,1,2.63.71,2.61,2.61,0,0,1,.79,2,5.27,5.27,0,0,1-.32,1.89,3.62,3.62,0,0,1-.93,1.41,4.17,4.17,0,0,1-1.5.9,6.2,6.2,0,0,1-2.06.31Zm-3,6.77-1.56.35a1.1,1.1,0,0,0-.52.23.54.54,0,0,0-.16.42.46.46,0,0,0,.14.38.61.61,0,0,0,.41.13h5.06a.77.77,0,0,0,.52-.17.54.54,0,0,0,.18-.44.52.52,0,0,0-.12-.36.94.94,0,0,0-.45-.22l-1.67-.35.94-5.41h1.71a9.21,9.21,0,0,0,3-.46,6.51,6.51,0,0,0,2.25-1.29,5.3,5.3,0,0,0,1.4-2,6.4,6.4,0,0,0,.48-2.5,3.83,3.83,0,0,0-.3-1.53,3.39,3.39,0,0,0-.92-1.19,4.23,4.23,0,0,0-1.56-.78,8.13,8.13,0,0,0-2.23-.28H93.72a.66.66,0,0,0-.49.17.58.58,0,0,0-.16.44.5.5,0,0,0,.15.37,1,1,0,0,0,.5.23l1.38.3Z"/><path class="cls-2" d="M355.74,194.11a1.42,1.42,0,0,0,.34.62.87.87,0,0,0,1.06,0,1,1,0,0,0,.25-.63c0-.39,0-.69,0-.91v-1.13c0-.3,0-.55,0-.76a4.86,4.86,0,0,0-.07-.51,2.45,2.45,0,0,0-.13-.34,1.88,1.88,0,0,0-.18-.24,3.69,3.69,0,0,0-1.43-.61,10.73,10.73,0,0,0-2.71-.28,10.14,10.14,0,0,0-3,.39,6.12,6.12,0,0,0-2.1,1.08,4.39,4.39,0,0,0-1.26,1.6,4.83,4.83,0,0,0-.41,2,4.67,4.67,0,0,0,.4,2,4.44,4.44,0,0,0,1.06,1.42,6.23,6.23,0,0,0,1.5,1c.56.27,1.13.51,1.72.74l1.73.65a6.93,6.93,0,0,1,1.51.79,3.74,3.74,0,0,1,1.05,1.09,2.94,2.94,0,0,1,.39,1.58,2.81,2.81,0,0,1-.95,2.16,4,4,0,0,1-2.77.86c-.58,0-1.07,0-1.47-.07a5.68,5.68,0,0,1-1-.21,2.56,2.56,0,0,1-.72-.3l-.67-2.45c-.15-.53-.44-.8-.87-.8a.76.76,0,0,0-.53.18.92.92,0,0,0-.23.63c0,.39,0,.69,0,.91v1.21c0,.32,0,.58,0,.79a3,3,0,0,0,.06.5.86.86,0,0,0,.12.32,2.12,2.12,0,0,0,.2.24,3.16,3.16,0,0,0,1.47.65,12.06,12.06,0,0,0,3,.3,10.38,10.38,0,0,0,3-.41,6.33,6.33,0,0,0,2.18-1.13,4.58,4.58,0,0,0,1.3-1.73,5.44,5.44,0,0,0,.43-2.18,4.76,4.76,0,0,0-.68-2.69,5.53,5.53,0,0,0-1.74-1.63,11.88,11.88,0,0,0-2.25-1.05q-1.2-.42-2.25-.9a5.69,5.69,0,0,1-1.74-1.16,2.48,2.48,0,0,1-.7-1.88,2.37,2.37,0,0,1,.89-1.88,3.85,3.85,0,0,1,2.6-.78,9.88,9.88,0,0,1,1.33.08l.94.17a3.22,3.22,0,0,1,.67.28Zm-17.89,12.35-1.65.38a1.19,1.19,0,0,0-.6.29.85.85,0,0,0,.07,1.05.94.94,0,0,0,.67.21h5.59a.94.94,0,0,0,.67-.21.73.73,0,0,0,.23-.57.78.78,0,0,0-.14-.48,1.18,1.18,0,0,0-.62-.29l-1.65-.38v-15l1.54-.36a1.33,1.33,0,0,0,.7-.34.9.9,0,0,0,.17-.57.65.65,0,0,0-.2-.47.89.89,0,0,0-.61-.19h-5.76a.9.9,0,0,0-.62.19.64.64,0,0,0-.19.47.85.85,0,0,0,.18.57,1.38,1.38,0,0,0,.68.34l1.54.36Zm-19.89,0-1.15.33a1.64,1.64,0,0,0-.66.34.73.73,0,0,0-.15.48.7.7,0,0,0,.24.57.92.92,0,0,0,.63.21h4.47a1,1,0,0,0,.66-.21.7.7,0,0,0,.24-.57.66.66,0,0,0-.19-.46,1.66,1.66,0,0,0-.65-.36l-1-.3,4.11-6.07,4.19,6.07-1,.3a1.63,1.63,0,0,0-.63.36.65.65,0,0,0-.18.46.73.73,0,0,0,.23.57.88.88,0,0,0,.64.21h5.06a.9.9,0,0,0,.64-.21.73.73,0,0,0,.23-.57.68.68,0,0,0-.16-.48,1.47,1.47,0,0,0-.63-.34l-1.17-.33-5.45-7.77,5.24-7.19,1.06-.3a1.64,1.64,0,0,0,.69-.42.86.86,0,0,0,.18-.57.57.57,0,0,0-.21-.46.9.9,0,0,0-.6-.18h-4.53a.85.85,0,0,0-.59.18.59.59,0,0,0-.19.46,1.46,1.46,0,0,0,0,.3.6.6,0,0,0,.14.26,1.17,1.17,0,0,0,.3.22,4.23,4.23,0,0,0,.46.21l.78.27-3.84,5.73-3.93-5.73.78-.27a4.23,4.23,0,0,0,.46-.21,1.17,1.17,0,0,0,.3-.22.76.76,0,0,0,.15-.26,1,1,0,0,0,0-.3.57.57,0,0,0-.21-.46.9.9,0,0,0-.6-.18h-5.09a.87.87,0,0,0-.61.18.6.6,0,0,0-.2.46.86.86,0,0,0,.18.57,1.64,1.64,0,0,0,.69.42l1.06.3,5.22,7.44ZM302,201.17l2.3-6.26c.14-.37.27-.74.37-1.1s.2-.68.3-.94.18-.61.28-.87h.05c.08.26.16.55.25.87s.2.57.31.92.24.73.39,1.12l2.27,6.26Zm-4.16,5.29-1,.33a1.62,1.62,0,0,0-.67.34.69.69,0,0,0-.17.48.7.7,0,0,0,.24.57,1,1,0,0,0,.66.21h4.47a1,1,0,0,0,.68-.21.7.7,0,0,0,.24-.57.62.62,0,0,0-.19-.48,2.1,2.1,0,0,0-.76-.34l-1.2-.33,1.29-3.55h7.71l1.29,3.55-1.2.33a2,2,0,0,0-.76.34.63.63,0,0,0-.2.48.7.7,0,0,0,.24.57,1,1,0,0,0,.66.21h4.92a.94.94,0,0,0,.67-.21.72.72,0,0,0,.22-.57.68.68,0,0,0-.16-.48,1.69,1.69,0,0,0-.67-.34l-1-.33L307.39,191a6.58,6.58,0,0,0-.38-.79,1.57,1.57,0,0,0-.4-.47,1.59,1.59,0,0,0-.49-.24,2.25,2.25,0,0,0-.6-.07,2.28,2.28,0,0,0-.63.07,1.49,1.49,0,0,0-.49.24,1.78,1.78,0,0,0-.42.47,3.92,3.92,0,0,0-.36.79Zm-13.94-8v-7h2.26a5,5,0,0,1,3.32.89,3.28,3.28,0,0,1,1,2.56,3.38,3.38,0,0,1-1,2.61,4.66,4.66,0,0,1-3.25,1Zm-2.57,8-1.65.38a1.19,1.19,0,0,0-.6.29.81.81,0,0,0,.07,1.05.94.94,0,0,0,.67.21h5.37a.94.94,0,0,0,.67-.21.82.82,0,0,0,.07-1,1.18,1.18,0,0,0-.6-.33l-1.43-.36V200.2h2.29l2,3.91a14.27,14.27,0,0,0,1.24,2.08,8.75,8.75,0,0,0,1.25,1.39,3.9,3.9,0,0,0,1.27.75,4.15,4.15,0,0,0,1.35.22,2.33,2.33,0,0,0,1.29-.28.85.85,0,0,0,.42-.71.63.63,0,0,0-.13-.41.84.84,0,0,0-.43-.27,4.88,4.88,0,0,1-.95-.5,5.94,5.94,0,0,1-1.05-.86,12.93,12.93,0,0,1-1.13-1.35,19.85,19.85,0,0,1-1.23-1.95l-1.37-2.42a6.28,6.28,0,0,0,1.68-.65,5.65,5.65,0,0,0,1.42-1.15,5.4,5.4,0,0,0,1-1.57,5,5,0,0,0,.36-1.91,5.4,5.4,0,0,0-.37-2.06,3.88,3.88,0,0,0-1.19-1.55,5.9,5.9,0,0,0-2.06-1,11.28,11.28,0,0,0-3-.35h-6.8a.9.9,0,0,0-.6.19.62.62,0,0,0-.21.47.85.85,0,0,0,.19.57,1.38,1.38,0,0,0,.68.34l1.54.36Zm-13.7-7.33v-7.71h2a4.54,4.54,0,0,1,3.2,1,3.68,3.68,0,0,1,1,2.82,3.84,3.84,0,0,1-1.06,2.91,4.4,4.4,0,0,1-3.16,1Zm-2.57,7.33-1.65.38a1.19,1.19,0,0,0-.6.29.81.81,0,0,0,.07,1.05.94.94,0,0,0,.67.21h5.87a.94.94,0,0,0,.67-.21.84.84,0,0,0,.06-1.06,1.23,1.23,0,0,0-.65-.3l-1.87-.39v-5.54h1.71a10.07,10.07,0,0,0,3.11-.43,6.23,6.23,0,0,0,2.26-1.24,5.27,5.27,0,0,0,1.38-1.93,6.49,6.49,0,0,0,.46-2.43,6.13,6.13,0,0,0-.38-2.21A4.09,4.09,0,0,0,275,191a5.56,5.56,0,0,0-2-1,10.55,10.55,0,0,0-2.94-.36h-6.55a.9.9,0,0,0-.62.19.65.65,0,0,0-.2.47.85.85,0,0,0,.18.57,1.42,1.42,0,0,0,.69.34l1.54.36Zm-13.17,0-1.82.38a1.23,1.23,0,0,0-.6.29.85.85,0,0,0,.07,1.05,1,1,0,0,0,.67.21h5.93a.94.94,0,0,0,.67-.21.85.85,0,0,0,.07-1.05,1.19,1.19,0,0,0-.6-.29l-1.82-.38v-15h4l.64,2.47a1.24,1.24,0,0,0,.33.62.84.84,0,0,0,1,0,.92.92,0,0,0,.23-.63c0-.48,0-.85,0-1.1v-1.3a6.58,6.58,0,0,0-.06-1.06,1,1,0,0,0-.25-.54,1.11,1.11,0,0,0-.42-.26,1.78,1.78,0,0,0-.67-.1H247.08a1.81,1.81,0,0,0-.68.1,1.7,1.7,0,0,0-.45.26,1.28,1.28,0,0,0-.23.54,5.38,5.38,0,0,0-.07,1.06v1.35q0,.39,0,1.05a.88.88,0,0,0,.23.63.83.83,0,0,0,.55.18.71.71,0,0,0,.5-.18,1.24,1.24,0,0,0,.31-.62l.67-2.47h4Zm-20.44-.79a5.77,5.77,0,0,0-.4.75,1.51,1.51,0,0,0-.13.65,1.29,1.29,0,0,0,.36,1,1.65,1.65,0,0,0,1.15.35h9.48a2,2,0,0,0,.67-.1,1.68,1.68,0,0,0,.45-.27,1.08,1.08,0,0,0,.23-.53,5.44,5.44,0,0,0,.07-1.06v-1.3c0-.14,0-.3,0-.48s0-.38,0-.62a.88.88,0,0,0-.24-.63.77.77,0,0,0-.52-.19.79.79,0,0,0-.52.19,1.23,1.23,0,0,0-.32.63l-.64,2.51h-7.33l8.92-14.26c.17-.3.3-.54.39-.74a1.38,1.38,0,0,0,.14-.65,1.24,1.24,0,0,0-.37-1,1.64,1.64,0,0,0-1.14-.35h-9.19a1.75,1.75,0,0,0-.67.1,1,1,0,0,0-.69.8,6.3,6.3,0,0,0-.07,1.06v1.16c0,.14,0,.29,0,.46s0,.37,0,.61a1,1,0,0,0,.24.65.72.72,0,0,0,.51.19.69.69,0,0,0,.51-.19,1.33,1.33,0,0,0,.3-.62l.62-2.37h7.1Zm-13.67-7.24v-7h2.27a5,5,0,0,1,3.31.89,3.28,3.28,0,0,1,1,2.56,3.38,3.38,0,0,1-1,2.61,4.65,4.65,0,0,1-3.24,1Zm-2.57,8-1.65.38a1.19,1.19,0,0,0-.6.29.85.85,0,0,0,.07,1.05.94.94,0,0,0,.67.21h5.37a.94.94,0,0,0,.67-.21.82.82,0,0,0,.07-1,1.18,1.18,0,0,0-.6-.33l-1.43-.36V200.2h2.3l2,3.91a14.26,14.26,0,0,0,1.25,2.08,8.73,8.73,0,0,0,1.24,1.39,3.9,3.9,0,0,0,1.27.75,4.17,4.17,0,0,0,1.36.22,2.32,2.32,0,0,0,1.28-.28.85.85,0,0,0,.42-.71.69.69,0,0,0-.12-.41.92.92,0,0,0-.44-.27,4.88,4.88,0,0,1-1-.5,6.28,6.28,0,0,1-1-.86,11.81,11.81,0,0,1-1.14-1.35,19.85,19.85,0,0,1-1.23-1.95l-1.37-2.42a6.28,6.28,0,0,0,1.68-.65,5.7,5.7,0,0,0,1.43-1.15,5.59,5.59,0,0,0,1-1.57,4.78,4.78,0,0,0,.37-1.91,5.4,5.4,0,0,0-.38-2.06,3.88,3.88,0,0,0-1.19-1.55,5.85,5.85,0,0,0-2.05-1,11.36,11.36,0,0,0-3-.35h-6.79a.9.9,0,0,0-.6.19.62.62,0,0,0-.21.47.85.85,0,0,0,.18.57,1.38,1.38,0,0,0,.68.34l1.54.36Zm-17.18-5.29,2.29-6.26a10.27,10.27,0,0,0,.38-1.1,9.65,9.65,0,0,1,.3-.94c.09-.32.18-.61.28-.87h0c.07.26.16.55.25.87s.2.57.31.92.24.73.39,1.12l2.27,6.26Zm-4.16,5.29-1,.33a1.62,1.62,0,0,0-.67.34.69.69,0,0,0-.17.48.7.7,0,0,0,.24.57,1,1,0,0,0,.66.21h4.47a1,1,0,0,0,.68-.21.7.7,0,0,0,.24-.57.66.66,0,0,0-.19-.48,2.19,2.19,0,0,0-.76-.34l-1.2-.33,1.29-3.55h7.71l1.29,3.55-1.2.33a2,2,0,0,0-.76.34.63.63,0,0,0-.2.48.7.7,0,0,0,.24.57,1,1,0,0,0,.66.21h4.92a.94.94,0,0,0,.67-.21.72.72,0,0,0,.22-.57.68.68,0,0,0-.16-.48,1.77,1.77,0,0,0-.67-.34l-1-.33L203.42,191a6.58,6.58,0,0,0-.38-.79,1.57,1.57,0,0,0-.4-.47,1.59,1.59,0,0,0-.49-.24,2.25,2.25,0,0,0-.6-.07,2.28,2.28,0,0,0-.63.07,1.49,1.49,0,0,0-.49.24,1.78,1.78,0,0,0-.42.47,3.92,3.92,0,0,0-.36.79Zm-19.87,0-1.65.38a1.19,1.19,0,0,0-.6.29.85.85,0,0,0,.07,1.05.94.94,0,0,0,.67.21h5.29a1,1,0,0,0,.67-.21.85.85,0,0,0,.07-1.05,1.28,1.28,0,0,0-.6-.29l-1.71-.38,0-10.28c0-.43,0-.84,0-1.24s0-.74,0-1.06,0-.7-.06-1l.06,0c.15.28.32.59.53.93s.33.59.55.93.43.69.65,1l7.89,11.86a2.47,2.47,0,0,0,.74.71,2,2,0,0,0,1,.24,1.65,1.65,0,0,0,1.16-.38,1.44,1.44,0,0,0,.4-1.11V191.5l1.43-.33a1.26,1.26,0,0,0,.7-.36,1,1,0,0,0,.17-.58.65.65,0,0,0-.2-.47.85.85,0,0,0-.59-.19h-5.36a.91.91,0,0,0-.61.19.65.65,0,0,0-.2.47.8.8,0,0,0,.19.57,1.5,1.5,0,0,0,.73.34l1.56.36,0,10.28c0,.41,0,.82,0,1.22s0,.76,0,1.08,0,.73.08,1.06l-.05,0c-.17-.31-.35-.63-.54-.95s-.36-.59-.57-.94-.44-.69-.68-1l-7.89-11.83a1.75,1.75,0,0,0-.7-.67,2.06,2.06,0,0,0-.86-.17h-3.33a.9.9,0,0,0-.62.19.64.64,0,0,0-.19.47.85.85,0,0,0,.18.57,1.38,1.38,0,0,0,.69.34l1.53.36Zm-21.72,0-1.65.38a1.19,1.19,0,0,0-.6.29.85.85,0,0,0,.07,1.05.9.9,0,0,0,.64.21h5.51a1,1,0,0,0,.66-.21.83.83,0,0,0,.07-1.06,1.15,1.15,0,0,0-.62-.3l-1.51-.36v-6.82h9.31v6.82l-1.51.36a1.08,1.08,0,0,0-.63.3.77.77,0,0,0-.15.49.72.72,0,0,0,.22.57,1,1,0,0,0,.67.21h5.51a.9.9,0,0,0,.64-.21.73.73,0,0,0,.23-.57.68.68,0,0,0-.16-.48,1.19,1.19,0,0,0-.6-.29l-1.65-.38v-15l1.54-.36a1.34,1.34,0,0,0,.69-.36.86.86,0,0,0,.18-.57.57.57,0,0,0-.21-.46.9.9,0,0,0-.6-.18H162.7a.9.9,0,0,0-.6.19.62.62,0,0,0-.21.47.89.89,0,0,0,.18.58,1.33,1.33,0,0,0,.71.36l1.4.33v6.29h-9.31V191.5l1.37-.33a1.45,1.45,0,0,0,.73-.36.85.85,0,0,0,.19-.58.61.61,0,0,0-.2-.47.93.93,0,0,0-.61-.19h-5.64a.9.9,0,0,0-.62.19.64.64,0,0,0-.19.47.8.8,0,0,0,.18.57,1.38,1.38,0,0,0,.68.34l1.54.36Zm-17.1-5.29,2.3-6.26a10.16,10.16,0,0,0,.37-1.1c.11-.37.21-.68.3-.94s.19-.61.28-.87h.05c.08.26.16.55.26.87s.19.57.3.92.25.73.39,1.12l2.27,6.26ZM131,206.46l-1,.33a1.69,1.69,0,0,0-.67.34.69.69,0,0,0-.17.48.7.7,0,0,0,.24.57,1,1,0,0,0,.66.21h4.47a1,1,0,0,0,.69-.21.7.7,0,0,0,.23-.57.62.62,0,0,0-.19-.48,2,2,0,0,0-.76-.34l-1.2-.33,1.29-3.55h7.71l1.29,3.55-1.2.33a2.1,2.1,0,0,0-.76.34.62.62,0,0,0-.19.48.73.73,0,0,0,.23.57,1,1,0,0,0,.66.21h4.92a.94.94,0,0,0,.67-.21.73.73,0,0,0,.23-.57.69.69,0,0,0-.17-.48,1.69,1.69,0,0,0-.67-.34l-1-.33L140.57,191a5.34,5.34,0,0,0-.38-.79,1.57,1.57,0,0,0-.4-.47,1.49,1.49,0,0,0-.49-.24,2.25,2.25,0,0,0-.6-.07,2.38,2.38,0,0,0-.63.07,1.49,1.49,0,0,0-.49.24,1.78,1.78,0,0,0-.42.47,3.92,3.92,0,0,0-.36.79Zm-15.78-.79a6,6,0,0,0-.41.75,1.67,1.67,0,0,0-.12.65,1.29,1.29,0,0,0,.36,1,1.61,1.61,0,0,0,1.15.35h9.47a2,2,0,0,0,.67-.1,1.68,1.68,0,0,0,.45-.27,1.19,1.19,0,0,0,.24-.53,5.44,5.44,0,0,0,.07-1.06v-1.3c0-.14,0-.3,0-.48s0-.38,0-.62a.88.88,0,0,0-.24-.63.79.79,0,0,0-1,0,1.16,1.16,0,0,0-.32.63l-.65,2.51h-7.32l8.92-14.26c.17-.3.3-.54.39-.74a1.51,1.51,0,0,0,.14-.65,1.25,1.25,0,0,0-.38-1,1.63,1.63,0,0,0-1.13-.35h-9.2a1.78,1.78,0,0,0-.67.1,1.11,1.11,0,0,0-.42.26,1,1,0,0,0-.26.54,5.38,5.38,0,0,0-.07,1.06v1.16c0,.14,0,.29,0,.46s0,.37,0,.61a1,1,0,0,0,.24.65.73.73,0,0,0,.52.19.68.68,0,0,0,.5-.19,1.43,1.43,0,0,0,.31-.62l.61-2.37h7.11Z"/><path class="cls-2" d="M393.22,163.42a2.48,2.48,0,0,0-.54-1,1.17,1.17,0,0,0-.82-.28,1.25,1.25,0,0,0-.85.28,1.57,1.57,0,0,0-.42,1c0,.47,0,.84,0,1.11v1.38a7.23,7.23,0,0,0,.12,1.62,1.49,1.49,0,0,0,.49.78,4.68,4.68,0,0,0,2,1,15.11,15.11,0,0,0,4.09.45,13.94,13.94,0,0,0,4.22-.57,9.05,9.05,0,0,0,3-1.5,6,6,0,0,0,1.79-2.23,6.6,6.6,0,0,0,.59-2.75,5.52,5.52,0,0,0-.92-3.29,7.73,7.73,0,0,0-2.31-2.09,15.65,15.65,0,0,0-3-1.34c-1.06-.34-2.06-.69-3-1a8.41,8.41,0,0,1-2.31-1.29,2.53,2.53,0,0,1-.92-2.07,2.65,2.65,0,0,1,1-2.14,5.4,5.4,0,0,1,3.4-.82,9.36,9.36,0,0,1,1.59.12l1.15.21a8.29,8.29,0,0,0,1,.28l.65,2.49a2.53,2.53,0,0,0,.55,1,1.1,1.1,0,0,0,.82.3,1.2,1.2,0,0,0,.84-.3,1.45,1.45,0,0,0,.38-1c0-.5,0-.87,0-1.13v-1.27a9.57,9.57,0,0,0-.09-1.59,1.38,1.38,0,0,0-.47-.8,4.57,4.57,0,0,0-1.9-.85,15,15,0,0,0-3.69-.37,13.72,13.72,0,0,0-4.08.54,9.58,9.58,0,0,0-2.92,1.43,5.61,5.61,0,0,0-1.73,2.09,5.8,5.8,0,0,0-.57,2.52,5.16,5.16,0,0,0,.94,3.21,7.56,7.56,0,0,0,2.3,2,15.23,15.23,0,0,0,3,1.29c1.07.35,2.07.72,3,1.11a9.11,9.11,0,0,1,2.3,1.38,2.64,2.64,0,0,1,.94,2.11,3.15,3.15,0,0,1-1.08,2.5,5.55,5.55,0,0,1-3.62.94,12.81,12.81,0,0,1-1.88-.12,5.74,5.74,0,0,1-1.27-.31,4.12,4.12,0,0,1-1-.37ZM363.67,166l-2.39.61a1.86,1.86,0,0,0-1,.49,1.38,1.38,0,0,0,.14,1.78,1.57,1.57,0,0,0,1.1.36H370a1.55,1.55,0,0,0,1.12-.36,1.21,1.21,0,0,0,.38-1,1.19,1.19,0,0,0-.26-.82,1.86,1.86,0,0,0-1-.49L367.9,166V151.82a8,8,0,0,1,1.46-1.45,8.57,8.57,0,0,1,1.78-1,6.31,6.31,0,0,1,2.45-.44,5.43,5.43,0,0,1,4.2,1.6c1,1.06,1.48,2.8,1.48,5.21V166l-2.35.61a1.93,1.93,0,0,0-1,.49,1.24,1.24,0,0,0-.26.82,1.19,1.19,0,0,0,.4,1,1.58,1.58,0,0,0,1.1.36h8.41a1.58,1.58,0,0,0,1.13-.36,1.45,1.45,0,0,0,.12-1.78,2,2,0,0,0-1-.49l-2.35-.61V154.59q0-4.46-2.19-6.67a8.49,8.49,0,0,0-6.31-2.21,8.6,8.6,0,0,0-3.36.57,12.7,12.7,0,0,0-2.23,1.17,8.17,8.17,0,0,0-1.65,1.79l-.09-.05c.06-.5.13-1,.19-1.57a15.82,15.82,0,0,0,.09-1.72v-8a3,3,0,0,0-.58-2.14,3.14,3.14,0,0,0-2.19-.59,14.46,14.46,0,0,0-2,.15c-.72.09-1.35.2-1.88.32a2.54,2.54,0,0,0-1.08.54,1.18,1.18,0,0,0-.28.83,1.15,1.15,0,0,0,.28.82,1.79,1.79,0,0,0,1,.44l2.49.43Zm-9.25-13.49a2.35,2.35,0,0,0,.52,1,1.21,1.21,0,0,0,.89.33,1.22,1.22,0,0,0,.89-.31,1.51,1.51,0,0,0,.38-1.06c0-.59,0-1.05,0-1.38v-1.48a10.29,10.29,0,0,0-.12-2,2,2,0,0,0-.45-.87,4.13,4.13,0,0,0-1.71-.8,11.41,11.41,0,0,0-3-.33,12.78,12.78,0,0,0-4.91.91,11.14,11.14,0,0,0-3.83,2.59,12,12,0,0,0-2.51,4,14.3,14.3,0,0,0-.92,5.22c0,3.63.95,6.42,2.87,8.38a10.37,10.37,0,0,0,7.79,2.94,14.06,14.06,0,0,0,2.21-.17,13.55,13.55,0,0,0,1.86-.42,8,8,0,0,0,1.38-.56,3.94,3.94,0,0,0,.89-.64,1.6,1.6,0,0,0,.47-1.12,1.05,1.05,0,0,0-.28-.8,1.14,1.14,0,0,0-.84-.29,2.35,2.35,0,0,0-.71.12l-.89.26c-.35.09-.76.19-1.25.28a8.55,8.55,0,0,1-1.71.14,7,7,0,0,1-5.43-2.21q-2-2.2-2-6.57,0-4.52,2-6.76a6.72,6.72,0,0,1,5.26-2.26,5.69,5.69,0,0,1,1,.07,4.2,4.2,0,0,1,.68.17l.57.18Zm-25.48-11.29a3,3,0,0,0,4.21,0,3,3,0,0,0,.84-2.13,2.8,2.8,0,0,0-.82-2.09,2.84,2.84,0,0,0-2.09-.83A2.81,2.81,0,0,0,329,137a2.93,2.93,0,0,0-.85,2.14,2.82,2.82,0,0,0,.82,2.09m.12,24.78-2.63.65a2,2,0,0,0-1,.47,1.21,1.21,0,0,0-.24.8,1.24,1.24,0,0,0,.38,1,1.56,1.56,0,0,0,1.13.36h8.68a1.61,1.61,0,0,0,1.15-.38,1.28,1.28,0,0,0,.4-1,1.15,1.15,0,0,0-.25-.77,1.94,1.94,0,0,0-1-.49l-2.39-.61V148.63a2.25,2.25,0,0,0-2.78-2.73,18.42,18.42,0,0,0-2.23.14c-.73.1-1.37.21-1.9.33a2.54,2.54,0,0,0-1.08.54,1.25,1.25,0,0,0-.28.87,1.15,1.15,0,0,0,.26.8,1.8,1.8,0,0,0,1,.42l2.77.43Zm-17.75,0-2.63.65a2,2,0,0,0-1,.47,1.27,1.27,0,0,0-.23.8,1.24,1.24,0,0,0,.37,1,1.58,1.58,0,0,0,1.13.36h9.25a1.7,1.7,0,0,0,1.16-.36,1.22,1.22,0,0,0,.4-1,1.17,1.17,0,0,0-.26-.8,2.15,2.15,0,0,0-1-.47l-2.92-.65V152.62a6.68,6.68,0,0,1,2.09-2.09,4.47,4.47,0,0,1,2.23-.63,1.62,1.62,0,0,1,.57.09c.15.06.3.12.44.16l.43.14a1.44,1.44,0,0,0,.49.08,1.22,1.22,0,0,0,.63-.19,2.45,2.45,0,0,0,.59-.54,2.62,2.62,0,0,0,.45-.9,4,4,0,0,0,.16-1.19,2,2,0,0,0-.51-1.44,2.26,2.26,0,0,0-1.65-.54,5.54,5.54,0,0,0-1.9.33,7.24,7.24,0,0,0-1.72.9,7.42,7.42,0,0,0-1.45,1.36,8.29,8.29,0,0,0-1.13,1.78l-.09,0v-1.41a2.91,2.91,0,0,0-.54-2,2.81,2.81,0,0,0-2.05-.57,16.71,16.71,0,0,0-2.06.14c-.72.1-1.35.21-1.88.33a2.54,2.54,0,0,0-1.08.54,1.25,1.25,0,0,0-.28.87,1.1,1.1,0,0,0,.26.8,1.77,1.77,0,0,0,1,.42l2.78.43Zm-13.67-2.45a9.51,9.51,0,0,1-1.46,1.51,11.42,11.42,0,0,1-1.79,1,6.17,6.17,0,0,1-2.46.45,5.84,5.84,0,0,1-4.62-2q-1.74-2-1.74-6.58,0-4.74,2-6.93a6.91,6.91,0,0,1,5.37-2.18,11.88,11.88,0,0,1,2,.14,10,10,0,0,1,1.46.33,8.64,8.64,0,0,1,1.23.51Zm0-20.38c0,.53,0,1,0,1.48s0,.91.07,1.38l-.09.1-1.08-.24c-.35,0-.76-.07-1.25-.14a13.61,13.61,0,0,0-1.66-.09,14.14,14.14,0,0,0-5.12.89,10.73,10.73,0,0,0-3.9,2.54,11.22,11.22,0,0,0-2.49,4,15.44,15.44,0,0,0-.89,5.4q0,5.58,2.53,8.36a8.77,8.77,0,0,0,6.81,2.77,9,9,0,0,0,3.36-.56,9.3,9.3,0,0,0,2.28-1.27,6.42,6.42,0,0,0,1.64-1.83l.1,0v.89a2.62,2.62,0,0,0,.63,1.91,2.67,2.67,0,0,0,1.95.63,11.81,11.81,0,0,0,2-.16,12.53,12.53,0,0,0,1.74-.4,2.67,2.67,0,0,0,1-.54,1.2,1.2,0,0,0,.31-.87,1,1,0,0,0-.29-.78,2.11,2.11,0,0,0-1-.39l-2.44-.29V137.92a3.08,3.08,0,0,0-.57-2.14,3,3,0,0,0-2.16-.59,16.35,16.35,0,0,0-2.25.15c-.72.09-1.36.2-1.93.32a2.43,2.43,0,0,0-1.07.54,1.18,1.18,0,0,0-.29.83,1.24,1.24,0,0,0,.26.82,1.56,1.56,0,0,0,1,.4l2.82.47Zm-35.7,12.16a8.54,8.54,0,0,1,1.89-4.82,5,5,0,0,1,4-1.8,4.6,4.6,0,0,1,3.59,1.63,7.72,7.72,0,0,1,1.53,5Zm12.6,2.63a2.53,2.53,0,0,0,1.92-.68,2.89,2.89,0,0,0,.65-2.09q0-4.6-2.34-7.06a8.34,8.34,0,0,0-6.35-2.47,10.46,10.46,0,0,0-4.29.89,10.78,10.78,0,0,0-3.48,2.49,11.42,11.42,0,0,0-2.32,3.92,15.12,15.12,0,0,0-.85,5.24,14.29,14.29,0,0,0,.78,4.91,9.89,9.89,0,0,0,2.18,3.59,9.39,9.39,0,0,0,3.45,2.23,12.75,12.75,0,0,0,4.58.78,14.58,14.58,0,0,0,4.72-.64,7,7,0,0,0,2.47-1.24,2,2,0,0,0,.4-.54,1.38,1.38,0,0,0,.11-.59,1.15,1.15,0,0,0-.28-.82,1,1,0,0,0-.84-.31,2.51,2.51,0,0,0-.75.14c-.28.1-.62.21-1,.33a9.85,9.85,0,0,1-1.45.33,12.42,12.42,0,0,1-2.11.14,7.51,7.51,0,0,1-5.68-2.16q-2.08-2.16-2.23-6.39ZM246.7,141.23a3,3,0,0,0,4.21,0,3,3,0,0,0,.84-2.13,2.8,2.8,0,0,0-.82-2.09,2.84,2.84,0,0,0-2.09-.83,2.81,2.81,0,0,0-2.11.87,2.93,2.93,0,0,0-.85,2.14,2.82,2.82,0,0,0,.82,2.09m.12,24.78-2.63.65a2,2,0,0,0-1,.47,1.21,1.21,0,0,0-.24.8,1.24,1.24,0,0,0,.38,1,1.56,1.56,0,0,0,1.13.36h8.69a1.58,1.58,0,0,0,1.14-.38,1.28,1.28,0,0,0,.4-1,1.15,1.15,0,0,0-.25-.77,1.94,1.94,0,0,0-1-.49l-2.39-.61V148.63a2.24,2.24,0,0,0-2.77-2.73A18.45,18.45,0,0,0,246,146c-.73.1-1.36.21-1.9.33a2.54,2.54,0,0,0-1.08.54,1.25,1.25,0,0,0-.28.87,1.15,1.15,0,0,0,.26.8,1.8,1.8,0,0,0,1,.42l2.77.43Zm-17.75,0-2.63.65a2,2,0,0,0-1,.47,1.46,1.46,0,0,0,.14,1.76,1.6,1.6,0,0,0,1.13.36h9.25a1.7,1.7,0,0,0,1.16-.36,1.22,1.22,0,0,0,.4-1,1.17,1.17,0,0,0-.26-.8,2.15,2.15,0,0,0-1-.47l-2.92-.65V152.62a6.68,6.68,0,0,1,2.09-2.09,4.48,4.48,0,0,1,2.24-.63,1.6,1.6,0,0,1,.56.09l.45.16.42.14a1.44,1.44,0,0,0,.49.08,1.22,1.22,0,0,0,.63-.19,2.45,2.45,0,0,0,.59-.54,2.62,2.62,0,0,0,.45-.9,4,4,0,0,0,.16-1.19,2,2,0,0,0-.51-1.44,2.26,2.26,0,0,0-1.65-.54,5.59,5.59,0,0,0-1.9.33,7.24,7.24,0,0,0-1.72.9,7.42,7.42,0,0,0-1.45,1.36,8.29,8.29,0,0,0-1.13,1.78l-.09,0v-1.41a2.91,2.91,0,0,0-.54-2,2.79,2.79,0,0,0-2-.57,16.74,16.74,0,0,0-2.07.14c-.72.1-1.35.21-1.88.33a2.54,2.54,0,0,0-1.08.54,1.25,1.25,0,0,0-.28.87,1.1,1.1,0,0,0,.26.8,1.8,1.8,0,0,0,1,.42l2.77.43Zm-24.33,0-2.77.64a2,2,0,0,0-1,.49,1.16,1.16,0,0,0-.26.81,1.2,1.2,0,0,0,.38,1,1.58,1.58,0,0,0,1.12.35h9.87a1.6,1.6,0,0,0,1.12-.35,1.37,1.37,0,0,0,.1-1.78,2,2,0,0,0-1.08-.51l-3.15-.65V155h7.84l.57,2a3,3,0,0,0,.58,1.1,1.21,1.21,0,0,0,.87.31,1.12,1.12,0,0,0,.87-.33,1.52,1.52,0,0,0,.31-1v-7a1.49,1.49,0,0,0-.31-1,1.12,1.12,0,0,0-.87-.33,1.28,1.28,0,0,0-.89.3,2.48,2.48,0,0,0-.56,1.11l-.57,2h-7.84V140.74h10.43l.84,3.46a2.15,2.15,0,0,0,.59,1.09,1.45,1.45,0,0,0,1.74,0,1.53,1.53,0,0,0,.4-1.06c0-.56,0-1,0-1.43v-1.9a12.11,12.11,0,0,0-.09-1.74,1.62,1.62,0,0,0-.42-.89,2.05,2.05,0,0,0-.71-.45,3.19,3.19,0,0,0-1.13-.16H202.06a1.44,1.44,0,0,0-1,.32,1.07,1.07,0,0,0-.33.79,1.41,1.41,0,0,0,.3.95,2.49,2.49,0,0,0,1.15.58l2.59.6Zm-25.22-2a6.59,6.59,0,0,1-1.41,1.22,7,7,0,0,1-1.67.85,6.49,6.49,0,0,1-2.28.38,4.53,4.53,0,0,1-3.17-1.06,3.35,3.35,0,0,1-1.15-2.56,2.52,2.52,0,0,1,1.36-2.3,8.82,8.82,0,0,1,4.28-.8c.56,0,1.09,0,1.59.07l1.32.12c.4.09.78.17,1.13.23Zm.09-6.48-1.32-.19c-.4-.06-.88-.11-1.43-.16s-1.16-.07-1.85-.07a16.91,16.91,0,0,0-4.23.47,9.52,9.52,0,0,0-3,1.27,5.21,5.21,0,0,0-1.79,1.9,5.07,5.07,0,0,0-.59,2.42,6.26,6.26,0,0,0,.52,2.53,6.19,6.19,0,0,0,1.48,2.07,6.85,6.85,0,0,0,2.35,1.39,9.09,9.09,0,0,0,3.08.49,9.29,9.29,0,0,0,3.24-.49A7.43,7.43,0,0,0,178.2,168a6.86,6.86,0,0,0,1.55-1.73l.09.05v.6a2.7,2.7,0,0,0,.61,1.91,2.67,2.67,0,0,0,2,.63,13.27,13.27,0,0,0,3.8-.56,2.67,2.67,0,0,0,1-.54,1.2,1.2,0,0,0,.31-.87,1,1,0,0,0-.31-.8,1.8,1.8,0,0,0-1-.37l-2.39-.29q-.19-3.53-.12-6.55t.07-5.94c0-2.69-.64-4.68-1.93-5.94s-3.36-1.91-6.24-1.91a16.84,16.84,0,0,0-2.92.24,24.5,24.5,0,0,0-2.46.56,12.68,12.68,0,0,0-1.88.71,4.1,4.1,0,0,0-1.1.7,1.51,1.51,0,0,0-.43,1,1.14,1.14,0,0,0,1.23,1.22,2.4,2.4,0,0,0,.86-.19l1.25-.42a13.45,13.45,0,0,1,1.78-.42,13.71,13.71,0,0,1,2.49-.19,5.11,5.11,0,0,1,3.93,1.34c.82.89,1.24,2.39,1.24,4.48ZM139.45,166l-2.63.65a2,2,0,0,0-1,.47,1.21,1.21,0,0,0-.23.8,1.24,1.24,0,0,0,.37,1,1.58,1.58,0,0,0,1.13.36h8.69a1.55,1.55,0,0,0,1.12-.36,1.24,1.24,0,0,0,.38-1,1.29,1.29,0,0,0-.24-.82,1.74,1.74,0,0,0-1-.49l-2.35-.61V151.82a7.72,7.72,0,0,1,1.46-1.45,8.57,8.57,0,0,1,1.78-1,6.25,6.25,0,0,1,2.44-.44,5.44,5.44,0,0,1,4.21,1.6c1,1.06,1.48,2.8,1.48,5.21V166l-2.35.61a1.93,1.93,0,0,0-1,.49,1.24,1.24,0,0,0-.26.82,1.19,1.19,0,0,0,.4,1,1.57,1.57,0,0,0,1.1.36h8.41a1.58,1.58,0,0,0,1.13-.36,1.43,1.43,0,0,0,.11-1.78,1.89,1.89,0,0,0-1-.49l-2.34-.61V154.59q0-4.46-2.19-6.67a8.5,8.5,0,0,0-6.32-2.21,8.74,8.74,0,0,0-3.4.59,10.06,10.06,0,0,0-2.23,1.25,7.13,7.13,0,0,0-1.69,1.83l-.1,0v-.84a2.91,2.91,0,0,0-.54-2,2.79,2.79,0,0,0-2-.57,16.74,16.74,0,0,0-2.07.14c-.72.1-1.34.21-1.88.33a2.54,2.54,0,0,0-1.08.54,1.3,1.3,0,0,0-.28.87,1.15,1.15,0,0,0,.26.8,1.8,1.8,0,0,0,1,.42l2.77.43Zm-13.52-2a6.59,6.59,0,0,1-1.41,1.22,7,7,0,0,1-1.67.85,6.53,6.53,0,0,1-2.28.38,4.55,4.55,0,0,1-3.17-1.06,3.35,3.35,0,0,1-1.15-2.56,2.52,2.52,0,0,1,1.36-2.3,8.79,8.79,0,0,1,4.28-.8c.56,0,1.09,0,1.59.07l1.32.12c.41.09.78.17,1.13.23Zm.09-6.48-1.32-.19c-.4-.06-.88-.11-1.43-.16s-1.17-.07-1.85-.07a16.91,16.91,0,0,0-4.23.47,9.63,9.63,0,0,0-3,1.27,5.21,5.21,0,0,0-1.79,1.9,5.06,5.06,0,0,0-.58,2.42,6.12,6.12,0,0,0,2,4.6,6.85,6.85,0,0,0,2.35,1.39,9.09,9.09,0,0,0,3.08.49,9.29,9.29,0,0,0,3.24-.49,7.43,7.43,0,0,0,2.11-1.16,6.86,6.86,0,0,0,1.55-1.73l.09.05v.6a2.66,2.66,0,0,0,.62,1.91,2.63,2.63,0,0,0,2,.63,13.27,13.27,0,0,0,3.8-.56,2.67,2.67,0,0,0,1-.54,1.16,1.16,0,0,0,.31-.87,1,1,0,0,0-.31-.8,1.8,1.8,0,0,0-1-.37l-2.39-.29q-.19-3.53-.12-6.55t.07-5.94c0-2.69-.64-4.68-1.92-5.94s-3.37-1.91-6.25-1.91a16.72,16.72,0,0,0-2.91.24,24.73,24.73,0,0,0-2.47.56,12.68,12.68,0,0,0-1.88.71,4.1,4.1,0,0,0-1.1.7,1.5,1.5,0,0,0-.42,1,1.2,1.2,0,0,0,.32.89,1.22,1.22,0,0,0,.9.33,2.32,2.32,0,0,0,.86-.19l1.25-.42a13.45,13.45,0,0,1,1.78-.42,13.71,13.71,0,0,1,2.49-.19,5.08,5.08,0,0,1,3.92,1.34c.84.89,1.25,2.39,1.25,4.48Zm-24.87-16.32a3,3,0,0,0,4.21,0,3,3,0,0,0,.84-2.13,2.8,2.8,0,0,0-.82-2.09,3,3,0,0,0-4.21,0,3,3,0,0,0-.84,2.14,2.82,2.82,0,0,0,.82,2.09m.12,24.78-2.63.65a2,2,0,0,0-1,.47,1.42,1.42,0,0,0,.14,1.76,1.54,1.54,0,0,0,1.12.36h8.69a1.63,1.63,0,0,0,1.15-.38,1.28,1.28,0,0,0,.4-1,1.11,1.11,0,0,0-.26-.77,1.86,1.86,0,0,0-1-.49L105.5,166V148.63a2.25,2.25,0,0,0-2.78-2.73,18.42,18.42,0,0,0-2.23.14c-.73.1-1.37.21-1.9.33a2.54,2.54,0,0,0-1.08.54,1.25,1.25,0,0,0-.28.87,1.15,1.15,0,0,0,.26.8,1.77,1.77,0,0,0,1,.42l2.77.43Zm-27.62.09V140.78h3.24q6.58,0,9.68,3.09t3.1,9.45q0,6.38-3.2,9.57t-9.58,3.21ZM69.33,166l-2.77.64a2,2,0,0,0-1,.49,1.21,1.21,0,0,0-.26.81,1.23,1.23,0,0,0,.38,1,1.6,1.6,0,0,0,1.12.35h9.49A24.34,24.34,0,0,0,84,168.12a15.18,15.18,0,0,0,5.63-3.24,13.07,13.07,0,0,0,3.41-5.22,22.25,22.25,0,0,0,.16-13.5,11.38,11.38,0,0,0-3-4.7A13.21,13.21,0,0,0,85,138.6a26,26,0,0,0-7.49-1H66.65a1.44,1.44,0,0,0-1,.32,1.07,1.07,0,0,0-.33.79,1.41,1.41,0,0,0,.3.95,2.48,2.48,0,0,0,1.16.58l2.58.6Z"/></g></g></svg>