<?xml version="1.0" encoding="utf-8"?>
<!-- Generator: Adobe Illustrator 26.0.1, SVG Export Plug-In . SVG Version: 6.00 Build 0)  -->
<svg version="1.1" xmlns="http://www.w3.org/2000/svg" xmlns:xlink="http://www.w3.org/1999/xlink" x="0px" y="0px"
	 viewBox="0 0 375 89.9" style="enable-background:new 0 0 375 89.9;" xml:space="preserve">
<style type="text/css">
	.st0{fill-rule:evenodd;clip-rule:evenodd;fill:#A0C9ED;}
	.st1{display:none;}
	.st2{display:inline;fill:none;}
	.st3{display:inline;fill:#014C6E;stroke:#014C6E;stroke-width:1.5;stroke-miterlimit:10;}
	.st4{font-family:'Montserrat-Regular';}
	.st5{font-size:60px;}
	.st6{letter-spacing:3;}
	.st7{font-family:'Montserrat-UltraLight';}
	.st8{font-size:20px;}
	.st9{letter-spacing:6;}
	.st10{fill:#005781;}
	.st11{display:inline;fill:#014C6E;}
	.st12{fill:#A0C9ED;}
</style>
<g id="Ebene_2">
	<path class="st0" d="M153,67.1c60.5-0.3,124.6-2.1,190.2-1.8c13.5,0.1,34,0.8,31.7-0.7c-2-1.3-40.1-1.6-53.9-1.6
		c-74.8-0.2-119.7,2.3-219.3,0.9C32.5,63,66.1,62.9,3,63c-0.3,0.7-9,1.3,4.7,1.6c85.9,1.8,37.6,2.5,116.7,2.8L153,67.1z"/>
</g>
<g id="NORTHERN_TEXT" class="st1">
	<rect x="-96" y="-0.4" class="st2" width="566.9" height="62.5"/>
	<text transform="matrix(1 0 0 1 -4.1015 44.1059)" class="st3 st4 st5 st6">Northern </text>
	<rect x="-96" y="65.1" class="st2" width="566.9" height="62.5"/>
	<text transform="matrix(1 0 0 1 23.6075 79.3115)" class="st3 st7 st8 st9">institute of thinking</text>
</g>
<g id="NORTHERN">
	<polygon class="st10" points="37.5,39.9 16.1,11.2 8,11.2 8,54.7 16.6,54.7 16.6,26.1 37.9,54.7 45.9,54.7 45.9,11.2 37.5,11.2 	
		"/>
	<path class="st10" d="M144.4,26.3c0-9.6-6.4-15.1-17.7-15.1h-17.8v43.5h8.6V42.1h9.2c0.5,0,1,0,1.5,0l7.7,12.7h9.9L136,40.3
		C141.4,37.9,144.4,32.9,144.4,26.3z M117.5,19.1h9.2c6.3,0,9.4,2.5,9.4,7.4c0,5.1-3.2,7.7-9.4,7.7h-9.2V19.1z"/>
	<polygon class="st10" points="149.1,19.1 162.3,19.1 162.3,54.7 170.9,54.7 170.9,19.1 184.2,19.1 184.2,11.2 149.1,11.2 	"/>
	<polygon class="st10" points="219.8,29.5 199.1,29.5 199.1,11.2 190.5,11.2 190.5,54.7 199.1,54.7 199.1,37.3 219.8,37.3 
		219.8,54.7 228.4,54.7 228.4,11.2 219.8,11.2 	"/>
	<polygon class="st10" points="248.4,36.8 269,36.8 269,28.9 248.4,28.9 248.4,19.1 271.4,19.1 271.4,11.2 239.9,11.2 239.9,54.7 
		272.1,54.7 272.1,46.9 248.4,46.9 	"/>
	<path class="st10" d="M316.5,26.3c0-9.6-6.4-15.1-17.7-15.1H281v43.5h8.6V42.1h9.2c0.5,0,1,0,1.5,0l7.7,12.7h9.9l-9.7-14.5
		C313.5,37.9,316.5,32.9,316.5,26.3z M289.6,19.1h9.2c6.3,0,9.5,2.5,9.5,7.4c0,5.1-3.2,7.7-9.5,7.7h-9.2V19.1z"/>
	<polygon class="st10" points="355.6,11.2 355.6,39.9 334.3,11.2 326.2,11.2 326.2,54.7 334.7,54.7 334.7,26.1 356,54.7 364.1,54.7 
		364.1,11.2 	"/>
	<g>
		<path class="st10" d="M8.6,89.8v-14h1.6v14H8.6z"/>
		<path class="st10" d="M30.2,89.8l-8.4-11.2v11.2h-1.6v-14h1.7l8.4,11.3V75.8h1.6v14H30.2z"/>
		<path class="st10" d="M50.6,77.1l-0.7,1.5c-1.3-0.8-2.7-1.2-3.9-1.2c-1.8,0-3,0.7-3,1.9c0,3.6,7.9,1.7,7.9,6.8
			c0,2.3-2.1,3.8-5.1,3.8c-2,0-4-0.9-5.4-2.1l0.7-1.4c1.3,1.3,3.1,2,4.7,2c2,0,3.3-0.8,3.3-2.2c0-3.7-7.9-1.7-7.9-6.7
			c0-2.2,1.9-3.6,4.8-3.6C47.8,75.8,49.5,76.3,50.6,77.1z"/>
		<path class="st10" d="M64.6,77.4v12.5H63V77.4h-4.6v-1.5h10.7v1.5H64.6z"/>
		<path class="st10" d="M77.2,89.8v-14h1.6v14H77.2z"/>
		<path class="st10" d="M93.1,77.4v12.5h-1.6V77.4h-4.6v-1.5h10.7v1.5H93.1z"/>
		<path class="st10" d="M117.3,84.1c0,3.6-2.2,5.8-5.9,5.8c-3.7,0-5.9-2.2-5.9-5.8v-8.2h1.6v8.2c0,2.7,1.6,4.3,4.3,4.3
			c2.7,0,4.3-1.6,4.3-4.3v-8.2h1.6V84.1z"/>
		<path class="st10" d="M131.4,77.4v12.5h-1.6V77.4h-4.6v-1.5H136v1.5H131.4z"/>
		<path class="st10" d="M145.7,77.4V82h7.1v1.5h-7.1v4.8h8.2v1.5h-9.8v-14h9.5v1.5H145.7z"/>
		<path class="st10" d="M188.3,82.8c0,3.9-3.2,7.1-7.3,7.1c-4.1,0-7.3-3.1-7.3-7.1c0-4,3.2-7,7.3-7
			C185.1,75.8,188.3,78.9,188.3,82.8z M175.3,82.8c0,3.1,2.6,5.5,5.7,5.5c3.1,0,5.7-2.5,5.7-5.5c0-3.1-2.6-5.5-5.7-5.5
			C177.9,77.3,175.3,79.8,175.3,82.8z"/>
		<path class="st10" d="M198.8,77.4v4.9h6.5v1.5h-6.5v6h-1.6v-14h8.9v1.5H198.8z"/>
		<path class="st10" d="M230.6,77.4v12.5H229V77.4h-4.6v-1.5h10.7v1.5H230.6z"/>
		<path class="st10" d="M253.3,89.8v-6.2h-8.4v6.2h-1.6v-14h1.6v6.3h8.4v-6.3h1.6v14H253.3z"/>
		<path class="st10" d="M264.9,89.8v-14h1.6v14H264.9z"/>
		<path class="st10" d="M286.5,89.8l-8.4-11.2v11.2h-1.6v-14h1.7l8.4,11.3V75.8h1.6v14H286.5z"/>
		<path class="st10" d="M302.5,83.2l-2.7,3v3.7h-1.6v-14h1.6v8.1l7.5-8.1h1.9l-5.5,6.1l6,7.9h-2L302.5,83.2z"/>
		<path class="st10" d="M317.8,89.8v-14h1.6v14H317.8z"/>
		<path class="st10" d="M339.4,89.8L331,78.6v11.2h-1.6v-14h1.7l8.4,11.3V75.8h1.6v14H339.4z"/>
		<path class="st10" d="M362.5,83v5.1c-1.4,1.1-3.3,1.8-5.2,1.8c-4.1,0-7.3-3.1-7.3-7.1c0-3.9,3.3-7,7.4-7c1.9,0,3.8,0.7,5.2,1.9
			l-0.9,1.2c-1.1-1-2.7-1.6-4.2-1.6c-3.2,0-5.8,2.5-5.8,5.5c0,3.1,2.6,5.6,5.8,5.6c1.3,0,2.6-0.4,3.7-1.2V83H362.5z"/>
	</g>
</g>
<g id="N">
</g>
<g id="N_Kopie" class="st1">
	<path class="st11" d="M82.9,1.4C70-0.9,58.6,6.7,56.4,19c-2.1,12.2,6.1,23.5,18.8,25.7C88,46.9,99.6,39.2,101.7,27
		C103.9,14.9,95.6,3.6,82.9,1.4z M76.7,37c-7.8-1.4-13-8.8-11.7-16.5c1.3-7.6,8.8-12.7,16.6-11.4c7.8,1.4,12.9,8.5,11.5,16.3
		C91.8,33.2,84.4,38.3,76.7,37z"/>
</g>
<g id="ICON">
</g>
<g id="ICON_RAHMEN">
</g>
<g id="Ebene_6">
	<path class="st10" d="M90.2,14.6L86,21.4c4.3,3,6.7,8.3,5.7,13.9c-1.4,7.7-8.7,12.9-16.4,11.5c-7.8-1.4-13-8.8-11.7-16.5
		c1.3-7.6,8.8-12.7,16.6-11.4c1.2,0.2,2.4,0.6,3.4,1.1l4.1-6.8c-1.9-0.9-4-1.6-6.3-2C68.5,9,57.2,16.6,55,28.9
		c-2.1,12.2,6.1,23.5,18.8,25.7c12.7,2.2,24.3-5.5,26.5-17.7C101.9,27.8,97.7,19.3,90.2,14.6z"/>
	<polygon class="st10" points="83.8,8.3 96.4,1.8 92.5,8.5 	"/>
	<polygon class="st12" points="96.9,16 96.4,1.8 92.5,8.5 	"/>
</g>
</svg>
