<svg xmlns="http://www.w3.org/2000/svg" viewBox="0 0 1920 25.54"><defs><style>.cls-1{fill:#005781;}.cls-2{fill:#a0c9ed;}</style></defs><g id="Ebene_2" data-name="Ebene 2"><g id="Ebene_1-2" data-name="Ebene 1"><path class="cls-1" d="M1176.3,11.82c-365.53-.51-703.48,1.62-978.17,1.77-50,0-188.33,0-198.13-.76V25.54H1920V13.05h-17C1671.09,13.31,1430.1,12.18,1176.3,11.82Z"/><path class="cls-2" d="M1920,9.73v5.4l-17-.06c-232,1.52-494.25,5.48-748,3.47-365.54-2.9-682.18-1.23-956.87-.37-50,.15-188.33,0-198.13-4.27V10.72c2.07,0,14.68.09,19.11,0,24.09-.7,66.27.15,98.12.13C358,10.61,593.8,3.27,816.09,1.28L920.93,0c290.49-.39,650,4.58,964.83,9.73C1885.76,9.75,1894.82,10.09,1920,9.73Z"/></g></g></svg>